<?xml version="1.0" encoding="UTF-8" standalone="no"?>
<!-- Created with Inkscape (http://www.inkscape.org/) -->

<svg
   xmlns:dc="http://purl.org/dc/elements/1.1/"
   xmlns:cc="http://creativecommons.org/ns#"
   xmlns:rdf="http://www.w3.org/1999/02/22-rdf-syntax-ns#"
   xmlns:svg="http://www.w3.org/2000/svg"
   xmlns="http://www.w3.org/2000/svg"
   xmlns:sodipodi="http://sodipodi.sourceforge.net/DTD/sodipodi-0.dtd"
   xmlns:inkscape="http://www.inkscape.org/namespaces/inkscape"
   width="744.09448819"
   height="1052.3622047"
   id="svg2"
   version="1.1"
   inkscape:version="0.48.2 r9819"
   sodipodi:docname="drawing.svg">
  <defs
     id="defs4" />
  <sodipodi:namedview
     id="base"
     pagecolor="#ffffff"
     bordercolor="#666666"
     borderopacity="1.0"
     inkscape:pageopacity="0.0"
     inkscape:pageshadow="2"
     inkscape:zoom="0.35"
     inkscape:cx="-59.34241"
     inkscape:cy="744.76653"
     inkscape:document-units="px"
     inkscape:current-layer="layer1"
     showgrid="false"
     inkscape:window-width="1329"
     inkscape:window-height="808"
     inkscape:window-x="93"
     inkscape:window-y="28"
     inkscape:window-maximized="0" />
  <metadata
     id="metadata7">
    <rdf:RDF>
      <cc:Work
         rdf:about="">
        <dc:format>image/svg+xml</dc:format>
        <dc:type
           rdf:resource="http://purl.org/dc/dcmitype/StillImage" />
        <dc:title></dc:title>
      </cc:Work>
    </rdf:RDF>
  </metadata>
  <g
     inkscape:label="Layer 1"
     inkscape:groupmode="layer"
     id="layer1">
    <path
       inkscape:connector-curvature="0"
       id="path3133"
       d="m 324.02549,1046.9534 c -1.08532,-0.3901 -3.15726,-1.4644 -4.60434,-2.3875 -2.4969,-1.5926 -3.26827,-1.7025 -15.12852,-2.1546 -18.67481,-0.7118 -20.27747,-0.9163 -24.53309,-3.1291 -3.45621,-1.7972 -4.42205,-1.9748 -12.30159,-2.2622 -6.94764,-0.2535 -9.5992,-0.6504 -14.14189,-2.1168 -6.2339,-2.0123 -13.25138,-2.3282 -22.37879,-1.0074 -2.70508,0.3915 -7.87826,1.1472 -11.49595,1.6794 -3.61769,0.5322 -9.06641,0.977 -12.10826,0.9885 -5.14161,0.02 -5.95126,-0.1748 -11.51083,-2.7596 -5.68709,-2.644 -6.28648,-2.7813 -12.22894,-2.8027 -3.43681,-0.012 -7.06891,0.234 -8.07133,0.5473 -1.22984,0.3844 -2.13665,0.3091 -2.78828,-0.2317 -0.57889,-0.4805 -1.82483,-0.643 -3.11063,-0.4058 -3.05641,0.5637 -8.40115,-1.2221 -10.13062,-3.3848 l -1.43528,-1.7949 -1.58066,1.4799 c -0.86935,0.814 -1.78501,1.48 -2.03479,1.48 -0.24978,0 -1.97243,0.7323 -3.82809,1.6276 -1.85567,0.8952 -3.75324,1.4132 -4.21681,1.1511 -1.41101,-0.7979 -4.90496,-5.5283 -5.32792,-7.2135 -0.5459,-2.175 2.80204,-8.7002 7.4948,-14.6074 0.8119,-1.0221 2.36925,-3.556 3.46077,-5.631 2.11455,-4.0199 10.22782,-12.16145 12.11909,-12.16145 0.59065,0 2.86621,-0.60374 5.05679,-1.34182 2.1906,-0.73788 4.4752,-1.18861 5.07692,-1.00165 1.34836,0.41914 2.10824,-0.0954 3.59827,-2.43649 1.01953,-1.6019 1.33187,-1.72702 2.60648,-1.04493 0.79648,0.42632 3.67231,0.75634 6.39072,0.73347 3.39862,-0.0287 5.27272,0.25167 5.99936,0.89715 1.30557,1.15958 2.003,0.43995 3.26602,-3.37005 1.25214,-3.77718 1.7749,-4.15653 6.53028,-4.73873 4.22909,-0.51769 4.27903,-0.54754 4.60434,-2.75738 0.47777,-3.24544 1.94774,-3.90148 4.50521,-2.01068 2.24066,1.65656 3.59838,5.15049 2.97171,7.64738 -0.24461,0.97457 0.2148,2.52253 1.2963,4.368 2.78884,4.75883 3.13915,4.85667 7.35889,2.0557 2.03248,-1.349 4.08331,-3.07591 4.5574,-3.83738 0.90968,-1.4613 1.92227,-9.22334 1.85386,-14.21097 -0.0223,-1.62795 -1.08764,-6.5119 -2.36733,-10.85313 -3.1114,-10.55491 -3.19242,-11.56938 -1.00927,-12.63707 1.39565,-0.6826 1.95686,-1.71943 2.86196,-5.28791 2.62036,-10.33103 2.16736,-9.62443 6.25504,-9.75611 1.98973,-0.0636 5.1932,-0.33966 7.11884,-0.61235 3.01453,-0.42684 3.76504,-0.30059 5.3999,0.90812 1.12775,0.83376 2.87973,1.40376 4.3146,1.40376 2.12147,0 2.90696,-0.52098 6.44622,-4.27549 3.07718,-3.26421 4.46154,-4.2754 5.85346,-4.2754 2.41163,0 2.87263,1.45597 1.45581,4.59783 -1.2642,2.80353 -1.01518,5.97338 0.65673,8.36044 1.13419,1.61934 9.07214,4.30554 13.27003,4.49066 1.56668,0.0687 3.22732,0.60066 3.86351,1.23691 0.80848,0.80843 1.68218,0.99662 3.17215,0.68321 3.05323,-0.6423 3.53383,-1.41094 1.9022,-3.04269 -1.18024,-1.18019 -1.58887,-1.27711 -2.43265,-0.57676 -0.55777,0.46283 -1.44346,0.67686 -1.9682,0.47554 -1.03365,-0.39668 -2.34193,-4.33672 -2.34783,-7.07082 -0.003,-1.18543 -0.79019,-2.33086 -2.60646,-3.79041 -1.81121,-1.45556 -2.73503,-2.79656 -3.03757,-4.40923 -0.3331,-1.77552 -0.91649,-2.5214 -2.49485,-3.18975 -1.13305,-0.47965 -2.63646,-1.51883 -3.34091,-2.30922 -0.70444,-0.79028 -2.3324,-1.93315 -3.61769,-2.53955 -1.28528,-0.6063 -4.36626,-3.18247 -6.84661,-5.72469 -3.33333,-3.4164 -5.4382,-4.97441 -8.0691,-5.97247 -1.95765,-0.7427 -4.86061,-2.43803 -6.45101,-3.76744 -2.76491,-2.31117 -2.91037,-2.61227 -3.31895,-6.87166 -0.23502,-2.45013 -0.50482,-8.00663 -0.59956,-12.34786 -0.0948,-4.34124 -0.25904,-8.18908 -0.36511,-8.55089 -0.45502,-1.55175 0.10275,-2.34296 2.29855,-3.26041 2.19323,-0.91633 2.30957,-1.11487 1.90791,-3.2559 -0.44622,-2.37855 1.11364,-9.89528 2.67444,-12.88761 1.26666,-2.42849 4.25437,-5.05091 7.11644,-6.24649 2.32869,-0.97283 2.74723,-0.96883 5.41925,0.0523 3.34493,1.27753 4.67094,0.68456 5.00891,-2.23978 0.31584,-2.73288 2.68691,-2.67319 5.80764,0.14624 1.42159,1.28429 3.40614,2.51535 4.41013,2.73564 3.21405,0.70516 3.4719,0.87674 4.86325,3.23487 0.75217,1.27486 1.59704,2.31784 1.87752,2.31784 0.97239,0 6.39478,-3.29231 7.58077,-4.60275 0.80086,-0.88494 2.02629,-1.31711 3.73511,-1.31711 1.49158,0 3.55733,-0.62004 4.99571,-1.49955 1.34888,-0.82474 3.02688,-1.80793 3.72888,-2.18472 1.93754,-1.04 1.97208,-2.13231 0.0945,-2.98782 -0.93083,-0.42406 -2.26825,-1.74701 -2.97205,-2.93993 -0.83202,-1.41012 -2.66997,-2.8707 -5.25426,-4.17519 -3.14405,-1.58714 -4.27176,-2.58981 -5.39654,-4.79822 -2.71606,-5.33273 -4.37323,-6.96457 -7.55776,-7.44207 -1.61145,-0.24162 -3.89464,-1.09405 -5.07374,-1.89418 -1.17909,-0.80013 -3.0784,-1.78065 -4.22068,-2.17887 -1.78557,-0.6224 -2.33497,-0.526 -3.91705,0.68712 -1.01209,0.77623 -2.07783,1.79357 -2.36828,2.26091 -0.29046,0.46724 -1.23185,1.6619 -2.09198,2.65462 -2.44258,2.81943 -3.03466,1.46161 -2.22655,-5.10577 1.46327,-11.89201 1.46216,-11.79571 0.14111,-12.1966 -3.01198,-0.91437 -4.37936,-2.1077 -5.2383,-4.57198 -1.84196,-5.28453 -1.538,-6.33745 3.426,-11.86791 2.97064,-3.30964 4.88891,-6.11788 5.53887,-8.10847 0.88701,-2.71666 1.18609,-3.02525 2.77135,-2.85973 1.48752,0.15537 1.99459,-0.24079 3.11245,-2.43208 0.73448,-1.43966 2.5953,-3.49454 4.13515,-4.56634 5.36915,-3.73718 7.66222,-6.66614 16.87247,-21.55204 2.88407,-4.6613 2.13125,-5.80008 -2.16851,-3.28026 -3.47785,2.0382 -6.19589,5.72338 -8.67659,11.764 -1.1632,2.83234 -2.47501,4.82098 -3.81566,5.78417 -1.12365,0.80731 -3.34525,2.92772 -4.93685,4.71217 -1.59161,1.78435 -5.14352,4.83073 -7.89315,6.76962 -5.31696,3.74939 -8.617,7.34116 -8.617,9.37881 0,0.68353 -1.52056,3.13755 -3.37902,5.45313 -1.85845,2.31578 -4.05805,5.28607 -4.88799,6.60071 -0.82994,1.31475 -3.64974,4.27847 -6.2662,6.58615 -9.2619,8.16877 -13.00275,11.8956 -15.81095,15.75185 -2.22756,3.05889 -3.21557,3.90128 -4.57575,3.90128 -2.98947,0 -8.96147,7.29418 -15.99577,19.53713 -1.70495,2.96752 -4.93207,7.8889 -7.17138,10.93672 -2.23931,3.04761 -5.546,7.57559 -7.34822,10.06202 -1.80223,2.48644 -5.95863,7.78748 -9.23646,11.77992 -3.27782,3.99255 -7.85398,9.76442 -10.16925,12.82638 -2.31525,3.06207 -5.79839,7.33931 -7.74029,9.50506 -1.9419,2.16574 -5.19727,6.60563 -7.23413,9.86635 -2.03688,3.26082 -6.2597,9.18468 -9.38407,13.1641 -3.12437,3.97942 -6.54573,8.5674 -7.60302,10.19534 -1.05729,1.62795 -3.19537,4.54347 -4.75129,6.47909 -1.55591,1.93551 -2.71562,3.85943 -2.57714,4.27539 0.40338,1.21158 2.24759,1.25332 3.20698,0.0728 0.48531,-0.59727 2.08606,-2.46366 3.55725,-4.14761 7.55968,-8.65303 18.70239,-23.53881 18.70239,-24.98523 0,-0.31587 1.80498,-2.61617 4.01108,-5.11183 2.20608,-2.49546 4.75462,-5.80294 5.6634,-7.34987 0.90878,-1.54673 2.41591,-3.21252 3.34917,-3.7015 0.93325,-0.48898 5.56255,-5.87083 10.28732,-11.9597 5.9094,-7.61549 10.32148,-12.56138 14.13676,-15.84692 3.05044,-2.62693 6.36556,-6.09255 7.36695,-7.70143 1.62512,-2.61093 4.07705,-4.3521 4.92903,-3.50008 0.17183,0.17178 -0.0864,1.28993 -0.57398,2.48469 -0.77266,1.89357 -0.74363,2.45229 0.22626,4.35467 0.61194,1.2003 1.76324,2.70918 2.55843,3.35312 0.79517,0.64384 1.44603,1.90064 1.44634,2.79276 0.001,3.59464 -1.01569,7.34916 -2.18903,8.08191 -1.59513,0.99621 -1.56763,2.41998 0.0467,2.41998 1.69412,0 3.33579,1.72804 3.33579,3.51146 0,0.79439 1.33197,2.9669 2.95993,4.82796 1.62796,1.86095 2.95993,3.68786 2.95993,4.05972 0,0.37176 -1.18822,2.04893 -2.64048,3.72693 -1.45226,1.67789 -3.08782,3.91584 -3.63458,4.97317 -0.54676,1.05734 -1.25083,1.92239 -1.5646,1.92239 -0.31378,0 -0.7391,0.43934 -0.94517,0.97642 -0.52384,1.3651 0.67735,14.27065 1.62159,17.42225 0.68154,2.27487 0.60161,3.03326 -0.63267,6.00323 -0.77702,1.86978 -1.41276,4.12659 -1.41276,5.01523 0,1.00841 -1.23629,3.00279 -3.28881,5.30575 -2.15741,2.42049 -3.28881,4.27837 -3.28881,5.40031 0,2.36306 -1.14694,3.28913 -4.07355,3.28913 -2.21107,0 -3.01982,0.52385 -7.1084,4.60429 -3.19731,3.19098 -5.10789,4.60438 -6.2241,4.60438 -0.88585,0 -2.70105,0.73993 -4.0338,1.64436 -3.19726,2.16975 -5.87481,2.14083 -7.7159,-0.0831 -5.53106,-6.68193 -6.68471,-6.57897 -10.16269,0.90669 -3.65272,7.86162 -6.22255,10.02982 -11.88818,10.02982 -3.6366,0 -10.00022,2.45187 -12.44062,4.79319 -1.83667,1.76219 -2.69113,2.08042 -5.91985,2.20492 -2.07536,0.08 -4.83267,0.59297 -6.12735,1.13979 -2.22572,0.94012 -2.54826,0.90412 -5.91986,-0.66035 -3.41717,-1.58559 -4.78383,-1.67717 -8.32667,-0.55789 -1.98492,0.62702 -2.55283,-0.99375 -1.53665,-4.38544 0.5384,-1.79716 2.04326,-3.80805 4.75478,-6.35376 4.15536,-3.90127 9.34728,-11.87734 8.97839,-13.79285 -0.4208,-2.18503 -2.19054,-1.42777 -4.44065,1.90013 -1.24684,1.84403 -2.75546,3.54366 -3.35247,3.77708 -0.59701,0.23331 -2.51436,2.2003 -4.26076,4.37087 -1.74641,2.17056 -3.60863,4.20617 -4.13828,4.52347 -3.65092,2.18718 -13.857402,14.18287 -16.099048,18.9213 -0.92486,1.95499 -4.590521,6.91494 -8.14591,11.02214 -7.127575,8.23352 -9.327605,11.27162 -11.717498,16.18072 -2.124676,4.3644 -4.963196,7.6428 -6.58656,7.6074 -0.723538,-0.015 -2.462496,-0.04 -3.864358,-0.052 -1.510945,-0.014 -3.221073,-0.5529 -4.199719,-1.3228 -2.239824,-1.7618 -2.685997,-1.668 -5.218116,1.0964 -2.179639,2.3796 -2.219401,2.3922 -6.227487,1.9733 -2.218619,-0.2319 -5.857806,-0.4216 -8.087092,-0.4216 -2.373068,0 -4.558805,-0.3697 -5.272838,-0.8918 -1.161161,-0.8491 -1.114644,-1.0224 0.971014,-3.6178 1.20483,-1.4992 2.67498,-2.7259 3.267005,-2.7259 0.592026,0 2.075109,-1.0303 3.295743,-2.2897 1.220642,-1.2594 3.1936,-2.6113 4.384353,-3.0043 1.19076,-0.393 3.10882,-1.9062 4.262364,-3.3627 1.784989,-2.2536 2.371949,-2.5932 3.941198,-2.2793 2.349176,0.4698 3.069603,-0.6531 1.410575,-2.1987 -1.848966,-1.7226 -1.245781,-5.03438 1.141804,-6.26903 2.867737,-1.48294 5.262339,-4.75053 5.262339,-7.18086 0,-1.7663 0.946257,-3.18452 5.342568,-8.00715 2.938406,-3.22328 6.306708,-6.80213 7.485115,-7.95299 1.1784,-1.15097 7.995584,-9.14273 15.149292,-17.75966 7.153709,-8.61683 15.995116,-18.78613 19.647576,-22.59849 3.65245,-3.81226 7.99567,-8.69611 9.65159,-10.85314 1.65593,-2.15682 6.72544,-8.80542 11.26559,-14.77461 4.54015,-5.96918 10.29256,-13.22101 12.78314,-16.1152 4.29192,-4.98732 9.27172,-11.07352 15.06934,-18.41734 1.42801,-1.80875 6.02096,-6.84069 10.20654,-11.18192 4.26457,-4.42307 8.52349,-9.53931 9.68768,-11.63757 3.57935,-6.4515 9.8194,-14.64991 14.77316,-19.40967 2.62145,-2.51884 6.29536,-6.18341 8.16425,-8.14343 1.86888,-1.96013 5.71679,-5.70429 8.55091,-8.32035 2.83411,-2.61606 7.37287,-7.01585 10.08614,-9.77713 13.1719,-13.4052 19.68728,-19.73814 22.69279,-22.05752 1.80885,-1.39597 4.76877,-3.72918 6.57762,-5.18484 1.80884,-1.45566 5.46095,-4.30031 8.11579,-6.32146 4.50162,-3.42726 8.65717,-8.52525 8.65717,-10.62054 0,-0.49831 1.21703,-1.99427 2.7045,-3.3245 3.97613,-3.55561 4.20928,-4.67005 2.17593,-10.4006 -0.94895,-2.67434 -1.57297,-5.2596 -1.38671,-5.74496 0.18625,-0.48537 1.9841,-1.81115 3.99522,-2.94619 4.8149,-2.71734 5.89153,-4.39734 5.30873,-8.28372 -0.596,-3.97439 0.1595,-4.7497 5.15615,-5.29117 6.25599,-0.67802 11.11195,-2.29151 12.961,-4.30656 1.74411,-1.90074 12.58481,-9.18644 13.66888,-9.18644 0.35244,0 0.97455,-0.40216 1.38247,-0.89364 0.56721,-0.68347 0.41644,-1.3071 -0.64092,-2.65137 -1.6843,-2.14121 -1.23144,-2.8464 3.15699,-4.91611 1.73364,-0.81767 3.59607,-1.71873 4.13872,-2.00237 1.58866,-0.83042 2.51762,-4.6626 2.27936,-9.4029 -0.19453,-3.86988 -0.0682,-4.45765 1.0334,-4.80732 1.52091,-0.48266 5.89591,-5.46554 5.89591,-6.71503 0,-0.4922 -0.64411,-1.76609 -1.43135,-2.83087 l -1.43136,-1.93605 1.51455,-1.49056 c 2.77739,-2.73347 12.00129,-18.47399 13.83941,-23.61684 1.64221,-4.59472 2.53769,-6.30586 6.93531,-13.25251 0.73597,-1.16254 2.69099,-3.00169 4.3445,-4.08699 4.39302,-2.88341 6.23818,-5.39482 6.63794,-9.03474 0.44984,-4.09609 1.56783,-5.66818 7.26078,-10.21 7.39788,-5.90199 14.00037,-13.1459 15.90287,-17.4478 0.91452,-2.06791 1.95341,-3.75983 2.30862,-3.75983 0.77282,0 5.09881,-6.62122 6.44626,-9.86644 1.1563,-2.78486 1.22368,-2.86425 2.01559,-2.37482 0.36893,0.22801 -0.15902,2.89735 -1.28061,6.47478 -1.86645,5.95327 -1.882,6.12209 -0.70837,7.69402 1.72008,2.30386 2.65301,2.37992 3.15138,0.25691 0.23957,-1.02056 1.39947,-2.89154 2.57754,-4.15774 2.60387,-2.79864 3.3011,-4.14907 3.90542,-7.56427 0.28076,-1.58669 1.26787,-3.46691 2.48682,-4.73683 1.97424,-2.0568 2.01202,-2.21601 1.62407,-6.84354 l -0.39721,-4.73776 2.76573,-2.45342 2.76573,-2.45343 0.38977,-10.10701 c 0.23393,-6.06585 0.73903,-10.92784 1.26329,-12.15994 0.7983,-1.87621 0.72481,-2.30665 -0.85382,-5.00036 -0.95003,-1.6211 -2.79771,-4.22863 -4.10597,-5.79453 -1.30826,-1.56588 -2.92777,-3.9234 -3.59891,-5.23894 -0.67113,-1.31553 -1.68229,-2.77534 -2.24701,-3.24402 -0.56472,-0.46867 -1.67626,-1.90302 -2.47007,-3.18744 -1.22151,-1.97643 -1.51213,-3.70867 -1.89123,-11.27245 -0.41631,-8.30609 -0.60523,-9.27342 -2.67566,-13.69945 -3.37196,-7.2084 -5.5748,-6.24767 -7.14895,3.11789 -1.06139,6.3148 -2.23943,8.7007 -4.16099,8.42725 -2.01616,-0.28694 -2.14684,-2.96625 -0.5473,-11.22121 0.71867,-3.70898 1.49207,-9.53557 1.71866,-12.94798 0.90074,-13.56495 2.98604,-18.59851 5.87708,-14.18623 0.5926,0.90442 1.31115,1.6444 1.59677,1.6444 0.28563,0 1.53677,-1.81144 2.78032,-4.02543 2.44994,-4.36178 8.30916,-10.2407 11.87385,-11.91376 1.22479,-0.57483 4.51568,-2.11156 7.31309,-3.41494 2.79742,-1.30337 7.32038,-2.79724 10.05101,-3.31971 5.3728,-1.02797 12.47616,-4.40055 13.56887,-6.44228 0.86553,-1.61725 0.15267,-8.22173 -1.38797,-12.85947 -1.34149,-4.03816 -5.31228,-8.28503 -8.37553,-8.95783 -1.2599,-0.27672 -3.03783,-0.0245 -4.87222,0.69103 -3.85959,1.50559 -10.77904,7.60201 -13.5567,11.9442 -1.23566,1.93164 -2.71682,3.6925 -3.29146,3.91302 -1.59396,0.61165 -3.47095,-2.17516 -3.47095,-5.15342 0,-2.79878 -0.11166,-2.89673 -2.09327,-1.8362 -1.05758,0.56599 -1.57685,0.49413 -2.40364,-0.33266 -0.96765,-0.96765 -0.96087,-1.42043 0.0823,-5.49074 0.62529,-2.43988 1.13822,-5.02812 1.13985,-5.75165 0.001,-0.72354 0.63233,-3.23948 1.40156,-5.59098 1.17637,-3.59609 1.4234,-6.10962 1.55464,-15.81859 0.17466,-12.92074 0.4633,-14.92717 2.70049,-18.7717 0.86058,-1.47887 1.56469,-3.19067 1.56469,-3.804 0,-1.60742 2.97261,-7.2374 5.15457,-9.76249 1.0275,-1.18911 3.40502,-4.45596 5.28336,-7.25968 2.46049,-3.67267 3.80369,-5.09765 4.80508,-5.09765 1.32522,0 1.3697,0.21784 0.95511,4.67866 -0.36605,3.93851 -1.04977,5.88954 -4.32205,12.33303 -5.55976,10.94783 -6.29068,13.08613 -8.23749,24.09844 -0.95933,5.42654 -1.90898,10.68041 -2.11033,11.67527 -0.60553,2.99189 0.9021,2.06129 2.13122,-1.31552 2.73359,-7.51008 7.70966,-18.33005 12.31857,-26.78546 1.37488,-2.5223 3.2694,-6.75392 4.21006,-9.40362 0.94066,-2.64969 2.59514,-5.91388 3.67661,-7.25373 1.08149,-1.33984 2.69456,-4.00463 3.58462,-5.92173 2.20017,-4.73897 4.96698,-6.45242 11.18456,-6.92645 4.73371,-0.36088 4.77589,-0.34954 7.89314,2.12328 4.58647,3.63832 5.70054,7.04982 4.65766,14.26273 -0.59259,4.09854 -0.6021,5.85753 -0.0384,7.09484 0.79573,1.74644 0.61506,2.66498 -1.75813,8.9384 -1.09119,2.8845 -1.23083,4.04762 -0.71071,5.91985 1.09055,3.92556 0.75439,5.5931 -1.87355,9.29391 -2.83225,3.98851 -5.05186,11.28737 -5.7073,18.76755 -0.55938,6.38394 -0.77134,7.14476 -2.59388,9.31072 -1.31235,1.55965 -1.70632,2.94868 -2.06866,7.29354 -0.39115,4.69019 -0.2939,5.53682 0.77119,6.71373 1.12145,1.2392 1.69363,1.31083 7.16612,0.89706 3.27105,-0.24731 6.31736,-0.74493 6.76957,-1.10584 1.32432,-1.05693 0.94291,-4.56365 -0.80504,-7.40161 -1.01136,-1.64206 -1.62823,-3.642 -1.64104,-5.32047 -0.0274,-3.59508 2.902,-12.80488 5.65046,-17.76442 l 2.22215,-4.00979 0,-9.75969 0,-9.75971 3.34142,-3.22069 c 3.79568,-3.65855 9.70011,-6.70428 15.21879,-7.85044 2.06829,-0.42957 3.89524,-1.13204 4.05987,-1.56107 0.16463,-0.429 -0.72959,-1.7773 -1.98716,-2.99618 -2.20083,-2.13313 -2.47962,-2.21619 -7.44218,-2.21719 -6.09589,-0.001 -7.58329,-0.92657 -8.28992,-5.15727 -0.25143,-1.50531 -1.03773,-4.21663 -1.74734,-6.02519 -1.5947,-4.06434 -1.06293,-6.33503 2.72112,-11.61941 2.05981,-2.87649 3.61123,-4.16292 7.40959,-6.14396 6.1625,-3.21408 13.73722,-10.69985 16.18209,-15.99206 1.82094,-3.94167 1.9622,-5.76011 1.05676,-13.60397 -0.58401,-5.05924 -0.55336,-21.8126 0.0458,-25.08574 0.53738,-2.93524 4.60113,-7.96771 7.36725,-9.12347 1.97686,-0.82598 2.21879,-1.13724 1.52951,-1.96776 -1.10109,-1.32674 -6.09489,-1.27735 -8.97374,0.0888 -2.91028,1.38102 -4.37314,4.14042 -3.80382,7.17517 0.40487,2.15815 0.17886,2.54548 -3.81622,6.54056 -3.56439,3.56441 -4.84568,4.40263 -7.97615,5.21801 -4.53122,1.18023 -5.06885,1.48645 -4.62778,2.63584 0.37218,0.96989 7.57137,3.0078 10.62545,3.0078 2.54812,0 3.64298,1.04167 5.3132,5.05514 1.83318,4.40505 1.79232,6.83439 -0.16343,9.71633 -0.87055,1.28283 -1.79344,3.88592 -2.05085,5.78464 -0.81258,5.99356 -3.47074,9.42546 -10.12123,13.06723 -1.57381,0.8618 -3.63668,1.9921 -4.58415,2.51177 -0.94747,0.51965 -2.90665,1.15732 -4.35373,1.41704 -1.44708,0.25971 -4.47655,0.82735 -6.73216,1.26142 -4.06425,0.78213 -4.12885,0.77086 -7.18372,-1.2526 -3.59817,-2.38333 -3.25916,-2.33633 -7.20035,-0.99826 -2.73087,0.92716 -5.29022,2.43946 -13.36485,7.89726 -2.67492,1.80801 -3.33989,1.55905 -3.34126,-1.25094 -0.001,-2.2912 -1.86139,-6.48765 -3.03888,-6.85517 -1.1174,-0.34878 -8.23663,6.96524 -10.40038,10.68493 -2.26141,3.88764 -13.41858,18.07965 -14.21344,18.07965 -1.1426,0 -1.30787,-1.33114 -0.34732,-2.79715 1.83318,-2.79778 5.862,-20.75648 6.01274,-26.80214 0.56744,-22.75861 1.38834,-26.79204 6.29479,-30.92922 2.26756,-1.91204 4.14105,-2.8505 6.72759,-3.36994 3.43913,-0.69068 3.68328,-0.64487 6.00608,1.12682 2.84119,2.16707 3.55911,1.90497 5.98297,-2.18432 l 1.65813,-2.79745 -2.17617,-1.99551 c -2.81769,-2.58376 -4.82819,-3.08746 -6.45324,-1.61681 -1.20883,1.09397 -1.35629,1.06647 -3.37036,-0.62826 -1.21155,-1.01944 -2.60889,-1.64084 -3.28953,-1.46285 -1.25574,0.32838 -2.84265,-1.01331 -2.08942,-1.76654 0.24548,-0.24549 0.3906,-3.05933 0.32246,-6.25298 -0.11635,-5.45305 -0.008,-5.96622 1.77444,-8.42721 1.73698,-2.39783 1.87821,-3.00732 1.66151,-7.17062 -0.13025,-2.50253 -0.2442,-4.91244 -0.2532,-5.35537 -0.009,-0.44292 -0.91814,-1.27162 -2.02029,-1.84156 -1.91817,-0.99192 -2.08775,-0.96569 -3.96438,0.61339 -2.30608,1.94045 -3.06191,1.76952 -5.04924,-1.14188 -2.2713,-3.32743 -1.91941,-4.65601 2.30217,-8.69206 4.31659,-4.12689 7.54789,-5.39282 10.92243,-4.27912 1.62903,0.53762 2.91027,0.46588 5.5199,-0.30909 3.93167,-1.16758 3.87502,-1.10155 5.15278,-6.00717 2.27317,-8.7273 1.79368,-11.4729 -2.28894,-13.10643 -1.94387,-0.77778 -2.83924,-1.64425 -3.55595,-3.44115 -1.04147,-2.61116 -0.83097,-4.07303 0.58645,-4.07303 2.52193,0 6.03087,-2.14699 7.06986,-4.32579 1.36221,-2.85656 1.37766,-4.18676 0.0703,-6.05319 -1.36451,-1.94812 -0.69535,-2.93239 1.35764,-1.99698 2.04317,0.93092 4.09805,-0.38972 2.88349,-1.85319 -0.41053,-0.49465 -1.09856,-0.89938 -1.52897,-0.89938 -0.4304,0 -2.00782,-0.59198 -3.50538,-1.31551 -1.49755,-0.72354 -2.99687,-1.31553 -3.33182,-1.31553 -0.33494,0 -0.97747,-0.44399 -1.42783,-0.98665 -0.45961,-0.55379 -1.89344,-0.98664 -3.2683,-0.98664 -1.34719,0 -3.4569,-0.50287 -4.68823,-1.1175 -1.36895,-0.68331 -3.61344,-1.0855 -5.77686,-1.03516 -5.08123,0.11822 -6.80108,-0.66289 -6.2545,-2.84064 0.48388,-1.92795 -0.45483,-2.87334 -2.86934,-2.88977 -0.89298,-0.006 -1.47997,-0.41386 -1.47997,-1.02812 0,-1.21644 3.11284,-4.24405 4.36353,-4.24405 0.48544,0 1.99618,1.20334 3.3572,2.67408 2.51274,2.71532 6.52725,5.21907 8.36824,5.21907 0.64878,0 1.01285,-0.60662 1.01285,-1.68765 0,-0.92821 0.31883,-2.2834 0.70853,-3.01154 0.53383,-0.9975 0.45275,-1.96315 -0.32889,-3.91665 -1.65564,-4.13786 -1.38532,-6.20898 0.93588,-7.17045 2.82904,-1.17183 2.45253,-2.29073 -1.47997,-4.39815 -3.43393,-1.84025 -3.45436,-1.86999 -3.65258,-5.31863 -0.12632,-2.19802 0.30862,-5.08854 1.18772,-7.89314 0.76287,-2.43381 1.70505,-5.46109 2.09374,-6.72728 0.38869,-1.2662 1.54413,-3.55713 2.56764,-5.09096 1.02353,-1.53384 3.49719,-6.12173 5.49705,-10.19531 1.99985,-4.07359 4.5144,-8.80434 5.58788,-10.51278 1.07348,-1.70842 2.90134,-4.81635 4.0619,-6.9065 1.16058,-2.09014 2.60168,-4.54023 3.20246,-5.44466 0.60079,-0.90442 2.54322,-3.86435 4.31652,-6.57762 1.7733,-2.713262 4.60583,-6.857169 6.29451,-9.208671 3.89011,-5.416988 7.77059,-13.054762 10.69393,-21.048376 1.25688,-3.436815 3.3545,-8.912679 4.66137,-12.168598 1.30688,-3.25593 3.01028,-7.547823 3.78531,-9.537554 2.21502,-5.68647 6.41592,-12.355822 10.67421,-16.946334 7.70078,-8.301567 12.14353,-10.1015 25.30992,-10.253989 8.21355,-0.09517 8.4117,-0.06297 11.55107,1.87648 6.8803,4.250493 10.72049,13.880335 8.1799,20.512245 -0.39014,1.018427 -1.71293,5.612723 -2.93952,10.209572 -1.78576,6.692417 -3.59181,11.14891 -9.06329,22.363913 -7.35783,15.081535 -10.50682,23.486252 -13.25697,35.383262 -0.96172,4.16035 -2.92422,11.41218 -4.36113,16.11518 -3.06408,10.02874 -3.57812,11.9361 -4.5204,16.77294 -1.44071,7.39541 -2.79292,13.62436 -4.01528,18.49645 -0.69165,2.75679 -1.25755,5.98966 -1.25755,7.18413 0,1.19448 -0.46749,4.66665 -1.03887,7.71592 -0.70814,3.77911 -0.96183,8.08821 -0.79684,13.53538 l 0.24204,7.99125 3.48614,6.9065 c 1.91739,3.79857 4.08713,8.03914 4.82165,9.42347 0.73451,1.38432 1.58328,4.64025 1.88615,7.23538 0.30285,2.59513 0.94432,6.05039 1.42549,7.67835 0.94938,3.21221 1.43307,3.55648 9.7071,6.90923 6.08498,2.46573 9.8637,5.0548 16.74361,11.47229 6.27638,5.85451 17.91508,18.47323 19.9131,21.58985 0.63345,0.98808 2.04319,2.98099 3.13277,4.42869 2.0642,2.74263 5.13875,9.21229 5.86046,12.33191 0.36198,1.56467 0.217,1.80894 -1.07403,1.80952 -1.11951,5e-4 -1.96887,0.86348 -3.39873,3.45325 -2.99821,5.43033 -6.17655,9.04356 -7.95509,9.04356 -0.85317,0 -4.24833,-1.34231 -7.54479,-2.98288 -6.01282,-2.99248 -6.69506,-3.6914 -7.56765,-7.75275 -0.46852,-2.18068 -9.93969,-11.5817 -11.69647,-11.60984 -0.9379,-0.015 -1.15028,0.5602 -1.14675,3.10593 0.004,3.50198 0.35391,4.11931 6.56702,11.6147 3.25884,3.93141 5.06585,5.50259 7.63549,6.63902 2.06867,0.91486 4.22409,2.55613 5.59153,4.25772 1.22387,1.52294 3.5362,3.65375 5.13849,4.73513 1.6023,1.08138 5.23163,4.08807 8.06518,6.68154 6.131,5.61155 7.34505,8.50024 7.38105,17.56237 l 0.0223,5.61158 -4.08752,7.27228 c -2.6169,4.65582 -4.08753,8.02072 -4.08753,9.35251 0,2.44827 -1.0693,2.66504 -5.01733,1.01711 -3.44216,-1.43676 -7.10479,-4.42301 -8.81115,-7.18396 -0.77404,-1.25242 -1.78631,-2.27713 -2.2495,-2.27713 -1.11159,0 -1.94299,7.87804 -1.05248,9.97278 0.35962,0.84594 1.09619,3.96535 1.63681,6.93203 1.76639,9.69305 -0.46561,11.71883 -12.4327,11.28399 -8.75101,-0.31798 -9.18819,0.58232 -4.56482,9.40025 0.5489,1.04691 0.75069,2.55172 0.50614,3.77446 -0.25981,1.29908 -0.056,2.57067 0.56444,3.52107 2.14351,3.2836 1.77615,9.92536 -1.1919,21.54939 -1.53679,6.01862 -5.43158,14.60457 -9.63796,21.24656 -1.77242,2.79867 -1.90974,3.35627 -1.20666,4.89936 0.70449,1.54618 0.51815,2.28349 -1.66318,6.58107 l -2.45657,4.8398 1.36468,1.36467 c 2.5061,2.50611 4.21976,1.27982 7.68462,-5.49909 1.70194,-3.32982 3.34638,-7.25641 3.65431,-8.72578 0.30792,-1.46935 1.58229,-5.59774 2.83193,-9.1742 1.96595,-5.62651 2.53475,-6.61308 4.22169,-7.32238 3.89802,-1.639 4.79795,-3.70085 4.79795,-10.99266 0,-5.51571 0.20979,-6.84643 1.3266,-8.41484 1.05351,-1.47952 3.82041,-2.98241 6.52286,-3.54299 0.28187,-0.0585 2.79563,4.30258 5.11719,8.87768 0.65842,1.29756 3.08167,4.10394 5.38498,6.23639 2.3033,2.13247 4.93719,5.06673 5.85307,6.52059 0.91587,1.45385 3.27543,4.63857 5.24346,7.07714 3.44394,4.26737 3.58686,4.6024 3.80844,8.92757 0.12663,2.4716 0.56495,5.80427 0.97405,7.40595 0.40911,1.60169 1.00349,7.79603 1.32086,13.76522 0.31737,5.96919 0.76007,12.03831 0.98377,13.48693 0.31951,2.06894 0.0771,3.19757 -1.13002,5.26209 -3.08386,5.27409 -4.84747,7.56458 -6.13484,7.96758 -1.60606,0.50275 -15.46964,14.82824 -15.03334,15.5342 0.59681,0.96564 1.59753,0.48629 4.4242,-2.11925 1.56509,-1.44264 3.85242,-3.0421 5.08297,-3.55436 2.12616,-0.88508 2.54453,-0.80334 8.41808,1.64476 l 6.18073,2.57613 5.28622,-0.66284 c 4.32915,-0.54283 5.54901,-0.49065 6.73771,0.28822 0.79831,0.52307 2.93985,1.14848 4.75899,1.38979 4.92829,0.65377 9.81475,3.69818 11.34475,7.06814 0.68744,1.51411 1.25638,3.85692 1.26433,5.20623 0.008,1.3493 0.49444,3.65294 1.08111,5.11919 1.02912,2.572 1.00596,2.8496 -0.65776,7.88349 -1.43524,4.34258 -1.72443,6.41742 -1.72443,12.37178 0,6.1741 -0.36045,8.57943 -2.63106,17.55782 -1.44707,5.72201 -2.63331,11.17075 -2.63607,12.10832 -0.003,0.93757 -0.59238,3.62864 -1.31026,5.98014 -1.32224,4.33116 -3.55698,14.5898 -4.22696,19.40399 -1.1435,8.21674 -3.31245,21.71063 -4.9691,30.91481 -1.04184,5.78831 -2.21724,12.59614 -2.612,15.12853 -1.77521,11.38782 -4.11269,26.89234 -5.00786,33.21698 -0.53763,3.79858 -1.70779,11.64238 -2.60036,17.43069 -2.88704,18.72261 -4.43999,30.03157 -6.95494,50.64769 -1.30864,10.7275 -2.99504,18.82473 -6.84959,32.88812 -5.6691,20.6838 -10.57561,33.76554 -17.79062,47.43328 -5.04246,9.55213 -13.77907,30.85218 -20.33893,49.58662 -6.93916,19.81772 -22.70389,57.79128 -36.18173,87.15344 -12.0094,26.16318 -15.08045,32.59119 -17.44074,36.50579 -3.84233,6.37262 -9.48216,19.19992 -12.78332,29.07482 -4.08775,12.2278 -5.35515,15.6431 -6.03386,16.2604 -0.65827,0.5986 -14.5958,-0.7488 -19.61085,-1.896 -1.77956,-0.407 -3.60866,-0.5969 -4.06468,-0.4219 -1.1253,0.4318 -11.82533,2.1733 -18.68136,3.0404 -3.07503,0.389 -7.95892,1.1209 -10.85307,1.6264 -2.89416,0.5056 -9.99798,1.0623 -15.78629,1.2371 -11.14241,0.3365 -19.32462,1.6459 -23.45604,3.7535 -2.06195,1.052 -3.81724,1.2531 -10.55694,1.2099 -4.44609,-0.029 -8.97177,-0.3711 -10.05708,-0.7612 z M 413.81,882.73543 c 0,-2.74323 -5.27254,-5.33386 -6.15824,-3.02577 -0.5647,1.47155 0.62339,6.98365 1.64888,7.64974 1.00294,0.65153 4.50936,-2.94393 4.50936,-4.62397 z M 376.03954,728.58522 c 6.52025,-7.62056 7.49124,-8.86867 9.09252,-11.68777 1.57443,-2.77188 1.59282,-2.94052 0.51984,-4.76937 -1.22314,-2.08477 -1.0765,-2.29894 4.2083,-6.14803 l 1.91478,-1.39459 -2.79549,-3.32775 c -2.71184,-3.22817 -3.48834,-5.54586 -2.13773,-6.38056 1.06355,-0.6573 0.77634,-5.33148 -0.38693,-6.29688 -0.57458,-0.47688 -2.01497,-0.83957 -3.20085,-0.80596 l -2.15618,0.0611 0.0551,-4.37234 c 0.0564,-4.4858 -1.42464,-8.60931 -3.80054,-10.58109 -0.91601,-0.76024 -1.03472,-0.50622 -1.03472,2.21436 0,4.11904 -1.49782,6.89216 -3.99203,7.39101 -1.52108,0.30421 -1.87698,0.66065 -1.58338,1.58572 0.44952,1.41624 -1.66401,3.01032 -4.83109,3.64374 -1.22983,0.24601 -3.34381,1.63389 -5.04865,3.3146 -2.43165,2.39721 -3.22381,2.81845 -4.63477,2.4643 -1.29502,-0.32506 -2.12401,-0.025 -3.46788,1.25627 -0.97132,0.92586 -3.246,2.1789 -5.05485,2.78443 -4.47295,1.49746 -8.20277,4.6963 -11.81974,10.13698 -1.66829,2.50948 -3.61788,4.74825 -4.33243,4.97505 -0.71455,0.22672 -2.3876,0.0533 -3.7179,-0.38592 -2.37511,-0.78385 -2.45776,-0.75215 -4.58421,1.76122 -1.19103,1.40775 -2.16991,2.91152 -2.17529,3.34177 -0.005,0.43024 -1.04432,2.79818 -2.30875,5.26209 -2.39541,4.66774 -2.77947,6.12422 -1.61495,6.12422 1.32708,0 4.25879,-1.87297 6.21607,-3.9713 2.80931,-3.01169 16.60393,-11.95778 19.73287,-12.79709 1.44707,-0.38821 4.38296,-2.13332 6.52417,-3.87796 3.85446,-3.14069 3.93286,-3.16943 7.89315,-2.89239 4.98776,0.34888 10.47674,2.66835 11.46917,4.84646 0.40342,0.88541 1.47783,1.94902 2.38758,2.36348 2.03805,0.92862 2.07912,1.6319 0.18489,3.16574 -1.4414,1.1672 -1.44765,1.23494 -0.32986,3.57895 0.62664,1.31407 1.58378,2.55981 2.12698,2.76825 1.42363,0.54628 1.22015,2.45412 -0.65679,6.15811 -3.2473,6.40824 -1.89346,6.60729 3.33966,0.49108 z m -3.01079,-36.33911 c 0,-0.64291 0.6302,-0.97935 1.80885,-0.96574 1.73258,0.0204 1.75501,0.0618 0.53205,0.98665 -1.62691,1.23054 -2.3409,1.22416 -2.3409,-0.021 z m 178.33779,-58.2475 c 3.05306,-3.25863 3.78278,-4.48355 4.0164,-6.74206 0.3625,-3.50436 0.15183,-4.05379 -1.91547,-4.99572 -1.36252,-0.62081 -1.98618,-0.57486 -3.22628,0.23769 -1.23592,0.80979 -1.86605,0.85744 -3.21444,0.24308 -1.55888,-0.71027 -1.93188,-0.50743 -5.28845,2.87602 -3.27992,3.30619 -3.61034,3.90456 -3.60119,6.52169 0.0123,3.52105 0.53407,4.41585 3.00592,5.15503 4.76632,1.42531 6.24774,0.94775 10.22351,-3.29573 z m -44.08076,-19.44009 c -0.60133,-6.028 -0.46494,-7.12358 0.91309,-7.33474 0.72353,-0.11086 3.23947,-0.76849 5.59097,-1.46138 2.3515,-0.6929 5.1609,-1.34905 6.24311,-1.45812 3.20044,-0.32253 2.81093,-2.08259 -1.46441,-6.61706 -4.52218,-4.79626 -7.35502,-8.39009 -10.73217,-13.61519 -1.34113,-2.075 -3.61983,-4.92807 -5.06377,-6.34015 -1.44394,-1.41208 -4.01599,-4.49137 -5.71568,-6.84288 -2.33343,-3.22827 -4.14042,-4.87959 -7.37758,-6.74206 -2.35799,-1.35663 -4.5576,-2.46661 -4.88803,-2.46661 -1.03139,0 -0.65717,1.23906 0.57307,1.89745 1.05281,0.56346 4.08826,8.87463 4.08826,11.19383 0,0.47431 0.43635,2.82869 0.96965,5.23195 0.53332,2.40326 1.5914,8.06948 2.35131,12.5916 0.75991,4.5221 1.80353,9.53271 2.31917,11.13468 0.51562,1.60196 0.9375,4.02998 0.9375,5.39559 0,4.1198 1.14082,5.83293 3.88771,5.83797 1.29856,0.003 3.249,0.59229 4.33431,1.31091 2.63544,1.74503 3.33903,1.34707 3.03349,-1.71579 z m -53.73119,-60.1712 c 1.80497,-1.06496 3.17533,-1.32333 6.10543,-1.15109 3.74435,0.2201 3.78121,0.20447 4.12843,-1.7512 0.3204,-1.8046 0.63106,-2.01053 3.63416,-2.40899 1.8061,-0.23964 4.83778,-0.46163 6.73707,-0.49332 3.75129,-0.0627 4.07838,-0.4554 2.25467,-2.70759 -1.1653,-1.43908 -1.2475,-1.44813 -2.95994,-0.32611 -1.65086,1.08169 -1.86645,1.08522 -3.43693,0.0562 -1.58059,-1.03565 -1.88033,-1.02128 -5.28677,0.25323 -2.35681,0.88182 -5.18201,1.35114 -8.13338,1.35114 -3.81899,0 -5.16232,0.33241 -8.63887,2.13773 -2.26418,1.17574 -4.23965,2.51071 -4.38995,2.96656 -0.28499,0.86443 4.56272,3.40646 6.54525,3.43217 0.61242,0.008 2.16079,-0.60347 3.44083,-1.35871 z m 30.63596,-7.21657 c 0,-0.34042 -0.44399,-0.61894 -0.98665,-0.61894 -1.01717,0 -1.30677,0.77613 -0.56601,1.5169 0.52551,0.5255 1.55266,-0.0685 1.55266,-0.89796 z m -48.01663,-228.5335 c 0,-0.54264 -0.27853,-0.98663 -0.61895,-0.98663 -0.82942,0 -1.42346,1.02715 -0.89795,1.55265 0.74077,0.74076 1.5169,0.45116 1.5169,-0.56602 z m 19.0751,-0.65775 c 0,-0.54266 -0.44399,-0.98665 -0.98665,-0.98665 -0.54266,0 -0.98664,0.44399 -0.98664,0.98665 0,0.54265 0.44398,0.98663 0.98664,0.98663 0.54266,0 0.98665,-0.44398 0.98665,-0.98663 z m -18.07307,-10.24381 c 1.07169,-3.3766 -2.7928,-7.37714 -5.64943,-5.84832 -1.68157,0.89995 -1.60569,1.81222 0.39566,4.75748 1.9237,2.83099 4.52973,3.37208 5.25377,1.09084 z m 112.13304,-20.91935 c 0,-1.48135 -1.64065,-2.99481 -2.60224,-2.40051 -0.76651,0.47374 -0.92528,2.51978 -0.24806,3.19699 0.94433,0.94434 2.8503,0.41174 2.8503,-0.79648 z m -35.14492,-19.96837 c 0.84349,-0.8435 -0.33466,-2.47607 -1.78686,-2.47607 -2.18538,0 -5.82275,1.47357 -5.82275,2.35891 0,0.8359 6.78637,0.94039 7.60961,0.11716 z m 7.37953,-6.91597 c 0.72704,-0.63309 1.82809,-1.96238 2.44678,-2.95396 1.11444,-1.78613 1.10298,-1.82479 -1.23235,-4.16013 -1.29649,-1.29649 -2.67371,-2.16167 -3.06049,-1.92262 -1.14588,0.7082 -2.61889,-1.01096 -2.61889,-3.05653 0,-1.59503 -0.46555,-2.12749 -2.89013,-3.30544 -2.85386,-1.3865 -3.55048,-1.35479 -5.84308,0.26597 -0.97625,0.69016 -1.57262,0.57898 -3.61769,-0.67445 -6.3335,-3.88181 -17.75771,-8.92273 -21.19496,-9.35226 -1.98973,-0.24863 -4.12359,-0.67337 -4.74192,-0.94385 -1.83464,-0.80254 -3.94495,3.22147 -3.42707,6.53485 0.49472,3.1652 1.28313,4.18902 2.38068,3.09149 1.24722,-1.24722 4.17749,-0.93029 8.59689,0.92982 3.60421,1.51697 4.43305,1.63936 7.04894,1.04076 3.2315,-0.73947 4.61324,-0.18704 4.61324,1.84443 0,1.46806 1.12859,2.40094 3.62137,2.99342 1.08328,0.25746 2.91184,1.16924 4.06344,2.02616 1.15162,0.85692 2.63158,1.56291 3.28882,1.56887 2.22903,0.0202 6.43552,2.91739 7.39797,5.09534 1.07944,2.4427 3.05682,2.81692 5.16845,0.97813 z m -30.33597,-33.43243 c 0.21901,-0.5707 -0.0862,-1.52211 -0.6784,-2.11424 -0.99694,-0.99694 -1.15623,-0.99694 -2.15318,0 -1.34478,1.34479 -0.72753,3.15189 1.07659,3.15189 0.74625,0 1.536,-0.46694 1.75499,-1.03765 z m -24.44778,-2.90892 c 0,-1.42651 -2.56617,-1.23 -2.845,0.21785 -0.17988,0.93407 0.11346,1.15559 1.30652,0.98665 0.84617,-0.11983 1.53848,-0.66185 1.53848,-1.2045 z m -12.9489,-5.06823 c 0.1284,-0.90268 -0.36071,-1.89641 -1.29499,-2.63105 -0.82572,-0.64928 -2.41973,-2.10758 -3.54226,-3.24068 -3.51859,-3.55172 -8.19545,-5.21557 -8.19545,-2.91564 0,0.36104 1.33197,2.15616 2.95993,3.98917 1.62796,1.833 2.95993,3.55027 2.95993,3.81618 0,0.9543 3.65082,2.75499 5.2621,2.59541 1.13034,-0.11195 1.7089,-0.61631 1.85074,-1.61339 z m 24.78862,-0.85163 c 0,-0.48236 -0.37,-1.00034 -0.8222,-1.15109 -0.48911,-0.16303 -0.82221,0.30331 -0.82221,1.15109 0,0.84778 0.3331,1.31412 0.82221,1.15109 0.4522,-0.15075 0.8222,-0.66873 0.8222,-1.15109 z m 1.31553,-5.25308 c 0,-2.08947 -1.95275,-2.54873 -2.94597,-0.69287 -0.92994,1.73759 -0.29436,2.79002 1.52807,2.53032 1.01765,-0.14503 1.4179,-0.66369 1.4179,-1.83745 z m -3.74985,-28.77789 c 0.16797,-2.85298 -0.0217,-3.49467 -1.29743,-4.38819 -2.19142,-1.53492 -3.77085,-1.2944 -4.52496,0.68906 -0.36293,0.9546 -0.57761,1.82571 -0.47704,1.9358 0.1006,0.11009 1.21362,1.40274 2.47347,2.87255 1.25984,1.46982 2.5918,2.5734 2.95992,2.45241 0.36812,-0.12101 0.75785,-1.72373 0.86604,-3.56163 z m -32.81248,-6.91472 c 1.07283,-2.84115 -1.70123,-5.05008 -3.7585,-2.99282 -1.6685,1.66851 -0.41804,4.47279 1.99448,4.47279 0.66285,0 1.45666,-0.66599 1.76402,-1.47997 z m 4.86005,-4.75976 c 0.0714,-0.35682 -0.38829,-0.74851 -1.02139,-0.87044 -0.71999,-0.13865 -1.15108,0.18396 -1.15108,0.86143 0,1.14436 1.94388,1.15242 2.17247,0.009 z m 13.61381,-4.94223 c 0.72355,-0.72353 1.31553,-1.9075 1.31553,-2.63105 0,-1.68431 -2.24899,-3.94657 -3.92343,-3.94657 -2.46201,0 -3.43802,3.85031 -1.63025,6.43126 1.26812,1.81049 2.53043,1.85408 4.23815,0.14636 z m -23.97289,-0.71507 c 0.61091,-0.98848 -0.53786,-1.98488 -3.43776,-2.98182 -3.38329,-1.16313 -5.56362,0.71657 -3.37261,2.90758 0.98491,0.9849 6.21234,1.04189 6.81037,0.0743 z M 80.817966,1030.9462 c -1.351733,-0.7334 -1.808845,-1.4788 -1.808845,-2.9498 0,-1.6296 -0.509509,-2.2762 -2.95993,-3.7563 -1.627961,-0.9834 -2.959929,-2.2089 -2.959929,-2.7235 0,-0.5145 1.701959,-2.7582 3.782132,-4.9859 2.080172,-2.2278 5.886037,-6.3967 8.457478,-9.2646 3.753065,-4.1855 5.327524,-5.4412 7.98143,-6.3652 4.241434,-1.4767 5.17487,-1.4486 7.296468,0.2203 1.46939,1.1559 2.28581,1.3036 5.19434,0.9402 3.22884,-0.4034 3.49875,-0.3262 4.19376,1.1991 0.62469,1.3711 0.45558,2.2175 -1.06343,5.3222 -1.30817,2.6738 -1.70797,4.2975 -1.44984,5.8882 0.32144,1.9808 0.0644,2.4404 -2.61979,4.6841 -1.63691,1.3683 -3.37861,3.4509 -3.87043,4.628 -0.69653,1.6671 -1.578822,2.3735 -3.991145,3.1953 -1.703315,0.5805 -3.606135,1.0553 -4.228489,1.0553 -0.622361,0 -2.819635,0.888 -4.882837,1.9733 -4.264404,2.2432 -4.588187,2.2862 -7.070943,0.9393 z M 210.10868,855.28519 c -0.22636,-0.5899 0.15292,-2.13047 0.84284,-3.42358 1.46744,-2.75041 5.66237,-7.34361 6.70687,-7.34361 0.39761,0 1.55342,0.72208 2.56845,1.60456 2.19619,1.90946 1.74332,3.18268 -1.80607,5.07768 -1.24755,0.66609 -2.56425,1.58508 -2.92602,2.04227 -0.70759,0.89407 -3.9886,3.11529 -4.60184,3.11529 -0.20496,0 -0.55787,-0.48272 -0.78423,-1.07261 z m 65.20699,-14.77102 c -0.67783,-1.09682 0.84668,-2.35445 1.75407,-1.44705 0.75901,0.75891 0.28396,2.16206 -0.732,2.16206 -0.31907,0 -0.77899,-0.32172 -1.02207,-0.71501 z M 61.907307,725.04844 c -13.513989,-1.93534 -19.663808,-4.19462 -24.548888,-9.01871 -2.857101,-2.82147 -3.765741,-4.33478 -5.394214,-8.98398 -1.828848,-5.22125 -1.957574,-6.2217 -1.94656,-15.12852 0.01026,-8.03312 0.254264,-10.36758 1.548968,-14.79966 2.467489,-8.44677 7.792652,-19.10782 14.700383,-29.43031 2.996436,-4.47771 4.635072,-8.13996 5.997324,-13.40368 0.550442,-2.1269 2.472065,-6.99879 4.270268,-10.82641 1.79821,-3.82762 3.941389,-9.59948 4.762625,-12.82637 0.821235,-3.22688 2.214356,-7.49501 3.095822,-9.48475 0.881468,-1.98972 2.286296,-5.63029 3.121845,-8.09014 2.102379,-6.18939 3.294796,-7.90635 4.895828,-7.0495 2.242896,1.20035 3.293047,0.73689 4.357345,-1.92306 1.090293,-2.72491 3.323981,-4.64344 5.406219,-4.64344 0.680987,0 1.505381,-0.58352 1.831992,-1.29673 0.326605,-0.71318 2.771606,-3.53545 5.433324,-6.27167 3.997767,-4.10968 4.759297,-5.22838 4.378401,-6.43198 -1.196016,-3.77935 -1.143947,-4.94919 0.253587,-5.69712 0.75988,-0.40668 1.383115,-1.24698 1.384964,-1.86735 0.0019,-0.62036 0.732602,-2.31191 1.623876,-3.75899 0.891281,-1.44707 1.62975,-3.38845 1.641038,-4.31417 0.01131,-0.92573 0.413936,-2.22114 0.894761,-2.87872 0.791855,-1.08293 1.107635,-1.11118 3.351405,-0.29983 2.45063,0.88617 2.49815,0.8712 4.43439,-1.39673 3.6776,-4.30756 5.37216,-5.91019 6.24925,-5.91019 1.1992,0 1.10463,1.0438 -0.46995,5.18659 l -1.34631,3.54217 1.42986,1.52202 c 1.95176,2.07755 1.25328,3.56222 -1.67588,3.56222 -1.88952,0 -2.3228,0.24706 -2.3228,1.32445 0,0.72845 -0.32692,1.84792 -0.72648,2.48772 -0.54821,0.87781 -0.48095,1.7509 0.27409,3.55797 1.16525,2.78884 0.59684,3.99028 -2.41749,5.10973 -1.63094,0.60568 -1.82387,0.94009 -1.44011,2.49622 0.24372,0.98826 0.60679,2.61082 0.80681,3.60568 0.2287,1.13749 0.78673,1.80885 1.50349,1.80885 1.33363,0 5.09119,1.77967 5.64312,2.6727 0.77226,1.24956 1.98628,0.53815 3.44715,-2.02 0.82478,-1.4443 1.78279,-2.62598 2.1289,-2.62598 0.34611,0 1.06215,1.03597 1.59119,2.30216 1.08791,2.6037 2.02235,2.94764 2.54792,0.93783 0.19623,-0.75038 0.97074,-1.52488 1.72112,-1.72112 0.75038,-0.19623 1.36434,-0.56168 1.36434,-0.81211 0,-0.25043 0.40809,-1.01344 0.9069,-1.69559 0.86449,-1.18226 0.98753,-1.18743 2.63104,-0.11055 2.15571,1.41248 2.1752,2.67559 0.0798,5.16591 -0.90443,1.07484 -1.64441,2.75559 -1.64441,3.73499 0,1.22082 -1.30919,3.3554 -4.16379,6.78888 -5.45596,6.56236 -8.33369,11.11257 -8.33369,13.17709 0,0.9189 -0.42621,2.02445 -0.94715,2.45679 -0.52094,0.43233 -1.03893,1.43055 -1.15108,2.21827 -0.13719,0.96345 -0.74213,1.49917 -1.84834,1.63682 -0.9811,0.12209 -3.41724,1.97933 -6.0395,4.60433 -10.825787,10.83715 -14.15055,12.93891 -16.324408,10.31957 -0.450362,-0.54265 -1.388969,-0.98664 -2.085789,-0.98664 -2.137234,0 -9.103151,5.1095 -13.626199,9.9948 -2.361438,2.55058 -6.56509,6.22914 -9.341438,8.17458 -5.242515,3.67353 -11.122505,9.23886 -11.12313,10.52791 -1.97e-4,0.40832 0.885873,1.10949 1.969049,1.55816 2.138509,0.8858 1.938787,0.9714 7.568144,-3.24343 3.966969,-2.97015 7.348235,-4.66384 11.437002,-5.72882 2.030321,-0.52884 4.431488,-1.66356 5.335917,-2.5216 1.464593,-1.38948 2.195932,-1.54756 6.687697,-1.4455 4.414255,0.1003 5.239937,-0.07 6.620014,-1.36538 0.867207,-0.81397 2.207383,-1.47996 2.978169,-1.47996 1.440782,0 5.951192,-5.03912 8.209632,-9.17198 1.86979,-3.42162 2.43117,-2.27362 3.48863,7.13411 0.33641,2.99289 0.17648,3.8546 -1.01437,5.46531 -1.12494,1.52158 -1.25305,2.10584 -0.6271,2.86008 1.37352,1.65497 4.95285,1.15094 7.46019,-1.05053 l 2.27604,-1.99839 1.33655,1.43462 c 1.26835,1.36142 1.4207,1.37948 2.9858,0.35399 4.36229,-2.85829 6.12111,0.008 3.35461,5.46805 -1.16164,2.29238 -1.66619,4.21488 -1.53132,5.8349 0.18277,2.19553 0.39625,2.43487 2.33885,2.62218 3.68913,0.3557 2.91535,1.92635 -2.95993,6.00817 -3.85136,2.67571 -4.87445,4.08932 -3.55142,4.90702 0.30778,0.19015 1.54926,-0.38433 2.75884,-1.27673 1.20958,-0.8924 2.65972,-1.62245 3.22254,-1.6223 0.56281,1.4e-4 2.83592,-0.9293 5.05135,-2.06541 4.98102,-2.55436 5.83801,-2.39938 12.24928,2.21531 0.81812,0.58887 1.48081,0.63209 2.30216,0.15015 1.7158,-1.00674 20.31157,-0.66536 21.59088,0.39638 0.83842,0.69582 1.23926,0.61167 2.34274,-0.49181 1.14855,-1.14855 1.74544,-1.2539 4.34871,-0.76755 1.65959,0.31004 3.19032,0.39095 3.40164,0.17981 0.21132,-0.21114 0.4023,-1.50818 0.42441,-2.88229 0.0271,-1.67994 0.59272,-3.15501 1.72683,-4.50281 0.92764,-1.10244 1.88299,-3.05118 2.12299,-4.33055 0.49797,-2.65441 1.37253,-3.46366 2.62225,-2.42649 0.48205,0.40007 1.7677,0.53597 2.9097,0.30757 1.79791,-0.35958 2.14684,-0.18039 2.87716,1.47757 0.45711,1.03774 1.65071,3.20271 2.65246,4.81106 1.00174,1.60834 1.82134,3.32229 1.82134,3.80876 0,1.12283 2.67537,4.77781 3.49725,4.77781 0.36479,0 0.43397,-1.39331 0.16854,-3.39425 -0.54866,-4.13603 -3.88059,-10.56106 -7.1597,-13.80623 -2.43021,-2.40505 -3.02359,-4.05866 -1.74087,-4.85144 0.3768,-0.23286 3.15982,0.78564 6.1845,2.26336 6.20015,3.0291 7.60119,3.28183 7.60119,1.37122 0,-1.70774 0.68128,-1.65908 4.60434,0.32888 3.90017,1.97637 4.60433,2.03445 4.60433,0.37974 0,-0.73293 -1.59019,-2.59968 -3.78213,-4.4399 -2.08018,-1.74637 -4.01884,-3.54521 -4.30814,-3.99743 -0.87383,-1.36587 -3.09169,-0.99716 -3.09169,0.51397 0,0.7349 -0.45515,1.51083 -1.01144,1.72429 -1.66578,0.63923 -6.56598,-1.63027 -8.78483,-4.06862 -2.52223,-2.77175 -4.8394,-2.9612 -7.63442,-0.62417 -1.08531,0.90746 -2.91224,2.06524 -4.05985,2.57284 -1.14762,0.50759 -2.60751,1.76161 -3.24424,2.78668 -1.91798,3.08785 -11.60865,12.71513 -14.07318,13.98111 -1.26619,0.65042 -4.91248,1.85178 -8.10287,2.66969 -5.65965,1.45095 -5.86405,1.45854 -8.40606,0.31227 -1.43293,-0.64617 -4.10343,-1.20413 -5.93444,-1.23993 -3.78622,-0.074 -4.77749,-0.96336 -5.8941,-5.28812 -0.37651,-1.45825 -1.26957,-3.46844 -1.9846,-4.46708 l -1.30004,-1.8157 1.70099,-0.64672 c 0.98524,-0.37459 2.09684,-1.59412 2.64174,-2.89825 0.88705,-2.12302 4.01287,-4.99222 5.43872,-4.99222 0.35697,0 2.0818,-1.18397 3.83297,-2.63104 3.50324,-2.89491 5.83137,-3.31303 9.06313,-1.62767 1.04967,0.54742 2.44263,0.82576 3.09547,0.61856 1.64927,-0.52346 4.53357,-4.09269 4.53357,-5.61016 0,-0.80933 0.80343,-1.59192 2.25848,-2.19987 1.29614,-0.54157 2.71395,-1.82444 3.32739,-3.01072 1.30213,-2.51805 2.56427,-2.28087 2.84227,0.53411 0.22609,2.28941 0.84126,2.61237 2.09605,1.10043 0.45036,-0.54265 1.38929,-0.98664 2.08649,-0.98664 2.0884,0 4.61686,-1.66465 8.41523,-5.54031 3.86639,-3.94504 4.81388,-4.29822 6.77345,-2.52484 1.2119,1.09676 1.33508,1.0589 3.01172,-0.92597 0.96147,-1.13823 2.27994,-2.83679 2.92993,-3.77458 1.5762,-2.27411 3.81895,-2.18312 6.61086,0.26822 1.2361,1.08531 2.55821,1.97328 2.93803,1.97328 0.37982,0 1.36245,-0.96197 2.18364,-2.13772 0.82118,-1.17575 1.79458,-2.34353 2.16311,-2.59506 0.81406,-0.55563 4.23448,1.41879 8.42527,4.86342 l 3.11207,2.55798 1.82113,-1.31355 c 1.57455,-1.13567 2.37449,-1.24539 5.90753,-0.81017 3.78374,0.46609 4.36971,0.77363 7.91225,4.15265 4.0734,3.88537 7.65366,6.10452 9.00938,5.58428 0.46019,-0.1766 1.18586,-2.60649 1.63479,-5.47413 0.444,-2.83611 1.35683,-6.23722 2.02851,-7.55799 0.67168,-1.32079 1.06749,-2.98934 0.87957,-3.7079 -0.18791,-0.71856 -0.0199,-1.50536 0.37342,-1.74841 0.39329,-0.24307 0.71507,-1.10438 0.71507,-1.91404 0,-1.86403 4.38129,-6.16319 6.57761,-6.45431 1.56303,-0.20719 1.64441,-0.42958 1.64441,-4.49343 0,-5.38582 0.54933,-5.41951 6.74505,-0.4136 2.52032,2.03633 4.84565,3.71037 5.16741,3.7201 1.06361,0.0322 4.61979,3.54709 7.0672,6.9852 1.32538,1.86188 2.85101,3.55455 3.39032,3.7615 1.26051,0.48369 1.25749,2.2079 -0.006,3.47146 -0.54266,0.54266 -0.98665,1.87295 -0.98665,2.95619 0,2.3211 -1.04737,4.50454 -2.73543,5.70249 -1.60851,1.14151 -1.64906,5.7884 -0.0657,7.53792 1.09165,1.20625 1.08393,1.31667 -0.16464,2.35396 -1.56849,1.30307 -2.9534,4.21609 -2.95563,6.21694 -6.6e-4,0.79696 0.92892,3.56846 2.06627,6.15889 2.11793,4.82386 2.13907,6.55187 0.088,7.19828 -3.91308,1.23323 -4.38011,1.6037 -3.33689,2.64692 1.46037,1.46036 5.98264,0.131 7.61495,-2.23847 2.1455,-3.11466 6.72439,-11.88572 6.72439,-12.88115 0,-0.52546 -1.03598,-2.19537 -2.30217,-3.7109 -1.26619,-1.51553 -2.30217,-2.84081 -2.30217,-2.94507 0,-0.10426 1.85909,-1.55444 4.13132,-3.22265 4.46715,-3.27966 6.39287,-5.86787 6.39287,-8.59212 0,-1.53903 0.14875,-1.6509 1.34432,-1.01105 0.73937,0.3957 2.39509,2.18207 3.67938,3.96972 1.2843,1.78764 2.69859,3.25026 3.14286,3.25026 0.44427,0 1.97047,0.87974 3.39154,1.95498 1.42109,1.07525 2.83409,1.96322 3.14002,1.9733 0.30592,0.0103 1.41589,0.63043 2.4666,1.3786 2.15305,1.53312 2.47016,3.65682 0.96028,6.43135 -0.52254,0.96024 -2.13237,4.44396 -3.57739,7.7416 -1.44501,3.29765 -3.38542,7.11286 -4.312,8.47826 -0.92659,1.3654 -1.6847,2.92335 -1.6847,3.46211 0,0.89264 -1.95586,3.43703 -6.27868,8.16801 -2.06184,2.25651 -2.12016,3.43699 -0.1345,2.72225 0.81398,-0.293 3.16591,-0.45068 5.2265,-0.35039 3.41119,0.16603 4.01919,-0.0257 6.79245,-2.14265 1.67525,-1.27874 3.30608,-2.32499 3.62407,-2.32499 0.85198,0 5.50893,-3.25974 5.94257,-4.15964 0.20502,-0.42547 0.17953,-6.54543 -0.0566,-13.59993 -0.46609,-13.92197 -1.15015,-16.80139 -4.09099,-17.22023 -1.20038,-0.17094 -1.45988,-0.58575 -1.34551,-2.15057 0.17092,-2.33849 -3.47712,-8.15403 -6.43712,-10.26172 -1.09965,-0.78303 -2.7267,-2.57584 -3.61565,-3.98404 -1.11123,-1.76028 -2.08732,-2.56035 -3.12367,-2.56035 -2.79965,0 -7.46817,-3.59601 -8.91508,-6.86701 -0.73352,-1.65823 -1.77843,-3.18564 -2.32204,-3.39424 -1.41279,-0.54214 -2.19589,-3.67039 -2.61674,-10.45311 l -0.36699,-5.91471 2.63909,-4.36785 c 1.45151,-2.40232 2.81588,-5.51257 3.03194,-6.91165 0.21606,-1.39909 0.79508,-3.34308 1.2867,-4.31998 0.49162,-0.97691 0.89386,-2.67287 0.89386,-3.76882 0,-2.63865 1.81529,-7.07999 3.0944,-7.57082 1.47544,-0.56619 2.50039,0.54871 3.43358,3.7349 1.16278,3.97013 2.47222,5.76323 4.2087,5.76323 2.38445,0 3.18727,-1.22299 2.12057,-3.23045 -0.49764,-0.93652 -3.07611,-6.14032 -5.72995,-11.56401 -5.03631,-10.29281 -7.17905,-13.59921 -12.3651,-19.08028 -1.71149,-1.80886 -3.78886,-4.27837 -4.61639,-5.48783 -0.82755,-1.20944 -2.72281,-2.78147 -4.21168,-3.49337 -7.93324,-3.79326 -8.60194,-4.40386 -10.20832,-9.32148 -1.67743,-5.13513 -1.48515,-11.67027 0.40643,-13.81409 0.69354,-0.786 1.74912,-2.21667 2.34575,-3.17925 1.13813,-1.83621 5.11082,-3.56361 6.74948,-2.9348 0.52773,0.20252 0.95952,1.11748 0.95952,2.03326 0,2.47884 1.68993,2.06502 3.64759,-0.89322 1.58403,-2.39362 1.63352,-2.70051 0.76899,-4.76877 -0.50819,-1.21578 -1.41383,-2.61675 -2.01253,-3.11326 -1.67412,-1.38839 -1.34813,-2.85681 2.09736,-9.44733 1.75222,-3.35169 3.39824,-6.98195 3.65782,-8.06727 0.4901,-2.04921 5.0674,-10.2908 6.87254,-12.37427 0.8051,-0.92923 1.83686,-1.15586 4.67591,-1.02706 l 3.64287,0.16527 -0.0778,-3.57728 c -0.0429,-1.9675 -0.17605,-5.50123 -0.29605,-7.85273 -0.11999,-2.3515 0.15794,-7.67937 0.61764,-11.83972 0.65402,-5.91904 1.2658,-8.4563 2.81274,-11.66562 3.28444,-6.81398 1.62962,-8.30608 -5.3207,-4.79758 -5.18252,2.61613 -6.61556,4.08463 -6.61556,6.77929 0,3.71459 -1.33693,4.82812 -6.38181,5.31538 -2.45919,0.23751 -5.81692,0.60931 -7.46162,0.82622 -2.94461,0.38834 -3.0188,0.35137 -4.85132,-2.41777 -1.02355,-1.54667 -3.09508,-4.32726 -4.60341,-6.17908 -1.50832,-1.85182 -3.8871,-5.42794 -5.28618,-7.94693 -4.90837,-8.83737 -13.63542,-20.69515 -15.23117,-20.69515 -1.06946,0 -1.42065,3.04292 -0.65904,5.71022 0.51059,1.78824 0.34798,2.38906 -1.11813,4.13145 -1.73404,2.06077 -3.07131,5.7085 -3.07803,8.39606 -0.002,0.87781 -0.72854,1.92606 -1.81252,2.61586 -2.58057,1.64213 -2.77419,2.07302 -2.78542,6.19855 -0.007,2.55466 -0.33068,3.96767 -1.04479,4.56033 -0.5691,0.4723 -1.57357,1.91452 -2.23217,3.20491 -0.6586,1.2904 -1.81627,2.90581 -2.5726,3.58981 -0.87619,0.7924 -1.53498,2.44855 -1.81566,4.56445 -0.34791,2.62265 -0.98999,3.9169 -3.05408,6.15618 -1.43746,1.55946 -3.1316,2.83538 -3.76477,2.83538 -1.74614,0 -2.38059,1.21374 -3.26633,6.24874 -1.16578,6.62687 -5.16526,16.47439 -7.63217,18.79192 l -1.48328,1.39348 -0.79396,-1.48352 c -0.52809,-0.98676 -0.65027,-2.88576 -0.3649,-5.67125 0.23598,-2.30325 0.23077,-5.68238 -0.0116,-7.50917 -0.36725,-2.76848 -0.72341,-3.42896 -2.1393,-3.96728 -1.15572,-0.43941 -2.20968,-0.41302 -3.29735,0.0826 -2.69054,1.22589 -3.09409,-0.0212 -1.7483,-5.40274 0.65812,-2.6317 1.15469,-6.68758 1.10349,-9.01308 -0.0513,-2.32549 0.16916,-5.17804 0.48971,-6.33901 0.67368,-2.43988 -1.1403,-14.0339 -2.44091,-15.60105 -0.43919,-0.52919 -0.61375,-1.44367 -0.38792,-2.03216 0.22583,-0.58851 0.22744,-1.54735 0.003,-2.13074 -0.7183,-1.87187 -2.52876,0.30293 -2.18754,2.62778 0.38114,2.59687 -1.29529,5.39962 -7.05687,11.7981 -5.44521,6.04713 -8.59282,8.60216 -9.95383,8.07989 -1.25514,-0.48164 -0.54216,-1.95593 3.42551,-7.08318 1.58637,-2.04962 2.88407,-3.94168 2.88407,-4.20458 0,-0.26288 1.34787,-3.28605 2.99526,-6.71812 3.41135,-7.10697 3.64091,-9.79417 0.95131,-11.13618 -1.30415,-0.65071 -1.6444,-1.31762 -1.6444,-3.22305 0,-1.63094 -0.36969,-2.58693 -1.15108,-2.97663 -0.6331,-0.31574 -1.66908,-0.82592 -2.30218,-1.13374 -0.66574,-0.32368 -1.24106,-1.47429 -1.36449,-2.72893 -0.11739,-1.1931 -0.63574,-2.81382 -1.1519,-3.60159 -0.97966,-1.49514 -3.5679,-12.59093 -3.5679,-15.29555 0,-1.68459 1.73915,-5.49984 2.82669,-6.20104 0.83228,-0.53664 3.36278,0.53156 6.38198,2.69398 5.48295,3.92704 6.90013,6.33449 8.25066,14.01596 0.51675,2.93912 1.20399,5.6083 1.52719,5.9315 1.10838,1.10838 6.59504,-0.26173 9.13673,-2.28161 2.24431,-1.78356 2.8396,-1.93936 6.7377,-1.76348 2.35174,0.10612 5.45986,-0.15011 6.90694,-0.56939 1.44707,-0.41929 3.43906,-0.92793 4.42662,-1.13032 0.98758,-0.2024 2.69975,-1.25183 3.80481,-2.33207 2.36339,-2.31028 4.00874,-2.43521 8.5415,-0.64856 1.83563,0.72353 3.47455,1.31552 3.64204,1.31552 1.17668,0 -0.24382,-5.20359 -3.31513,-12.14406 -3.34978,-7.56978 -5.26623,-15.12513 -4.76128,-18.77076 0.19217,-1.38742 -0.86897,-13.15513 -1.28372,-14.23594 -0.20085,-0.52341 0.0947,-0.89258 0.7145,-0.89258 0.58137,0 1.05702,0.41768 1.05702,0.92818 0,1.35822 3.80406,4.33392 5.54038,4.33392 0.82109,0 2.35234,0.42849 3.40278,0.95221 5.15317,2.56916 15.06883,3.1906 22.30053,1.39762 2.53239,-0.62787 8.60025,-1.4211 13.48412,-1.76274 11.47567,-0.80273 12.48161,-0.82061 14.59955,-0.25943 1.19989,0.31792 3.60032,-0.11197 7.4243,-1.3296 5.73583,-1.8264 7.85449,-1.72278 5.03742,0.24638 -0.85326,0.59645 -2.21916,1.75042 -3.03535,2.5644 -0.81619,0.81398 -1.82987,1.47997 -2.25262,1.47997 -1.37466,0 -7.58059,3.38076 -9.6047,5.23227 -1.0853,0.99278 -3.81094,2.89954 -6.05697,4.23727 -3.94979,2.35247 -4.14821,2.39885 -6.05163,1.41455 -2.59462,-1.34172 -3.56161,-1.28404 -4.99321,0.29786 -0.65479,0.72354 -2.02234,1.31553 -3.03899,1.31553 -1.0821,0 -2.74422,0.77209 -4.00906,1.86231 -1.18834,1.02427 -2.69197,2.05609 -3.3414,2.29292 -0.64943,0.23684 -1.59431,1.4203 -2.09973,2.62994 -1.27113,3.04223 -2.7127,4.05232 -5.67257,3.97472 -1.95006,-0.0511 -3.0814,0.40688 -4.90712,1.98664 l -2.37276,2.05311 0.71871,5.2621 c 0.5432,3.97713 1.05724,5.54318 2.10505,6.41318 1.9829,1.6464 3.02433,1.46975 8.7245,-1.47997 4.46101,-2.30846 5.62438,-2.62966 9.48887,-2.61978 2.42248,0.006 6.62444,0.59377 9.33771,1.3057 5.25904,1.37992 5.28433,1.37776 16.5973,-1.41356 3.00247,-0.74083 4.2626,-2.62899 2.7584,-4.13317 -0.56778,-0.56779 -1.56692,-1.03234 -2.22032,-1.03234 -0.65341,0 -1.58306,-0.47601 -2.06592,-1.05781 -0.74638,-0.89934 -0.68758,-1.197 0.39246,-1.98674 2.44555,-1.78823 6.4006,-2.37804 12.81634,-1.91128 3.43377,0.24981 6.5836,0.7367 6.99963,1.08197 0.56125,0.4658 0.4267,1.49548 -0.52146,3.99089 -1.34192,3.53159 -1.23067,5.14507 0.35473,5.14507 1.54826,0 4.32415,-3.85353 4.7659,-6.6161 0.22583,-1.41225 0.78412,-2.87773 1.24067,-3.25663 0.824,-0.68386 7.95127,-2.32601 13.31193,-3.06711 1.53744,-0.21255 4.12738,-0.0134 5.75542,0.44232 2.82836,0.7919 2.96008,0.93751 2.96008,3.27239 0,1.53199 -0.44875,2.84974 -1.20287,3.53221 -1.85858,1.682 -2.7437,1.31648 -2.7437,-1.13304 0,-2.4593 -1.28057,-3.93548 -3.09277,-3.56522 -0.96916,0.198 -1.14799,0.79258 -0.99054,3.29326 l 0.19215,3.05163 -3.48097,-0.0649 c -4.03483,-0.0753 -6.44087,0.56798 -6.44087,1.72183 0,2.45741 4.43941,3.18874 8.04339,1.32505 4.18222,-2.16271 13.32295,0.61392 15.79085,4.7967 0.70986,1.20313 1.53593,2.18751 1.83571,2.18751 1.95598,0 5.47998,-7.8991 6.24086,-13.98901 0.32324,-2.58714 0.76274,-3.77057 1.40028,-3.77057 0.74994,0 0.84474,0.82408 0.49145,4.27242 -0.42369,4.13543 0.68735,12.17163 1.68279,12.17163 0.2443,0 1.10069,-0.88798 1.9031,-1.97329 1.11092,-1.5026 1.97924,-1.97328 3.64033,-1.97328 2.88939,0 6.25047,-1.73661 7.1401,-3.68914 0.39418,-0.86513 0.96086,-1.57296 1.25927,-1.57296 1.24813,0 -4.62924,12.249 -8.75391,18.24401 -2.7354,3.97577 -4.46604,8.04212 -4.48287,10.53308 -0.0169,2.50091 0.30196,2.5858 2.94549,0.78433 1.0853,-0.73959 3.45325,-2.10225 5.2621,-3.02814 3.98751,-2.04108 6.24874,-4.02658 6.24874,-5.48678 0,-1.28632 3.81545,-7.23349 4.64071,-7.23349 0.31359,0 0.65568,2.58994 0.76021,5.75541 0.18616,5.63745 0.22349,5.75542 1.82163,5.75542 1.26225,0 1.98751,-0.67001 3.20402,-2.95993 0.86486,-1.62797 3.43996,-6.08963 5.72246,-9.91482 3.51448,-5.88982 4.22256,-7.6022 4.62377,-11.18195 0.50602,-4.51492 2.41868,-9.81805 3.54101,-9.81805 2.27614,0 -0.59962,14.2332 -5.58171,27.62601 -1.68221,4.52211 -3.38035,9.48562 -3.77363,11.03001 -0.39329,1.54439 -2.68724,6.72427 -5.09768,11.51084 -4.28711,8.51324 -4.45951,8.74242 -7.91243,10.51912 -2.83049,1.45642 -3.92704,2.52728 -5.53459,5.40493 -4.68508,8.38663 -6.55106,11.02173 -8.81824,12.45294 -2.47851,1.56462 -3.14246,2.57387 -5.01492,7.62299 -0.60372,1.62795 -1.96322,4.3178 -3.0211,5.97744 -1.05788,1.65963 -1.92342,3.23166 -1.92342,3.4934 0,1.59754 -5.37444,11.49985 -6.72001,12.3815 -0.99903,0.65458 -2.18979,2.64488 -3.12567,5.22439 -0.8315,2.29182 -1.91632,4.75081 -2.41069,5.4644 -1.52968,2.20794 -1.13613,7.8904 0.75378,10.88423 0.90896,1.43989 1.94074,2.61797 2.29284,2.61797 0.35209,0 1.40384,1.15399 2.33721,2.5644 1.55386,2.34804 1.63432,2.79733 0.95363,5.32521 -0.8349,3.10057 -0.26839,5.52634 1.94887,8.34514 0.91548,1.16384 1.33402,2.6624 1.32329,4.73791 -0.0284,5.499 -1.00682,8.10384 -4.00457,10.66148 -2.2532,1.92239 -2.84267,2.90327 -3.15722,5.25367 -0.30381,2.27005 -0.75671,3.06718 -2.11135,3.71609 -0.94851,0.45436 -2.08826,1.26433 -2.53277,1.79993 -0.71346,0.85967 -1.02875,0.85978 -2.68974,6.7e-4 -2.74367,-1.4188 -5.01061,-5.82897 -5.39894,-10.50321 -0.37217,-4.47979 -4.13219,-12.98995 -5.60289,-12.68115 -1.27792,0.26834 -6.42313,10.62113 -7.93688,15.96996 -0.71668,2.53239 -1.45054,6.87127 -1.63081,9.64197 -0.18027,2.77071 -0.64215,5.6251 -1.02642,6.3431 -0.38427,0.718 -0.99799,3.94779 -1.36384,7.17729 -0.36583,3.22952 -0.98592,6.79199 -1.37797,7.91661 -0.50838,1.45834 -0.51038,2.42302 -0.007,3.36367 1.57594,2.94467 -0.15617,2.81166 -3.78008,-0.29027 -1.51219,-1.29438 -2.73927,-1.96036 -2.72685,-1.47996 0.0423,1.63259 5.59134,8.76283 6.97636,8.96414 1.24595,0.18112 1.42692,0.91989 2.17509,8.87979 1.41354,15.03863 0.26404,19.82325 -3.07357,12.79326 -1.04395,-2.19884 -1.87495,-3.12437 -2.80528,-3.12437 -1.65278,0 -1.65369,0.76974 -0.006,5.10471 0.72336,1.90317 1.3152,4.16087 1.3152,5.01711 0,2.30252 1.43576,3.25013 3.49961,2.30978 1.95773,-0.89201 2.81644,-2.85819 3.3916,-7.76569 0.22922,-1.95586 0.85574,-4.40499 1.39227,-5.44253 0.53653,-1.03753 0.89019,-2.3665 0.7859,-2.95327 -0.33588,-1.88989 1.2661,-1.64929 1.67081,0.25094 0.21488,1.009 0.98982,2.79652 1.72208,3.97227 1.14079,1.83169 1.7068,2.13772 3.95373,2.13772 l 2.62234,0 1.00991,3.78214 c 2.27426,8.51707 2.52197,9.03014 4.46775,9.25374 2.28712,0.26283 3.97351,2.68825 3.41537,4.9121 -0.24754,0.98624 0.0166,2.47291 0.66077,3.71851 1.03248,1.99661 1.0058,2.21756 -0.70343,5.82627 -0.97714,2.06302 -2.60957,5.60532 -3.62761,7.87178 -1.01805,2.26645 -2.73722,5.22638 -3.82038,6.57762 -1.08317,1.35124 -2.83203,4.52873 -3.88636,7.06112 -3.22128,7.73716 -3.48662,8.14887 -5.72848,8.88876 -2.2606,0.74607 -2.66657,1.56509 -6.17218,12.45178 -1.65366,5.1355 -1.79969,11.7587 -0.32227,14.61576 1.5416,2.98111 0.31353,3.50357 -2.8196,1.19942 -2.30201,-1.69295 -2.9524,-1.88534 -4.44899,-1.31638 -2.17669,0.82761 -4.58309,0.84839 -7.21146,0.0625 -2.61047,-0.78076 -8.67901,-1.9354 -14.61254,-2.78043 -3.31289,-0.47181 -7.48538,-0.44194 -14.14189,0.10112 -25.72401,2.09853 -32.27693,2.32776 -56.80133,1.98717 -11.57455,-0.16069 -15.129,0 -17.75958,0.80807 -4.87593,1.49601 -18.81656,7.96477 -22.5665,10.47143 -1.7981,1.20193 -5.00405,3.25725 -7.12432,4.56731 -2.12027,1.31006 -8.59092,5.43501 -14.37924,9.16663 -13.92151,8.9749 -28.92771,15.96303 -37.16355,17.30644 -1.2662,0.20648 -4.96611,0.99382 -8.22203,1.74952 -15.306081,3.5527 -35.481722,5.44812 -44.398936,4.17107 z M 242.19868,636.26266 c 0.21639,-2.87682 0.74808,-5.89319 1.1815,-6.70305 0.89231,-1.6673 0.46093,-2.86976 -0.84917,-2.36703 -1.9807,0.76006 -3.57506,7.99449 -2.7413,12.43878 0.75708,4.03555 1.98072,2.3244 2.40897,-3.3687 z M 77.376239,607.92353 c 0.558704,-1.33717 1.700598,-3.33512 2.537541,-4.4399 0.83695,-1.10478 1.641768,-2.37674 1.788494,-2.82659 0.146727,-0.44984 1.736782,-1.78181 3.533459,-2.95992 3.315371,-2.17396 4.590389,-3.93507 5.282493,-7.29634 0.211261,-1.02603 1.129582,-2.61097 2.040714,-3.5221 1.433297,-1.43329 2.033906,-1.60001 4.455707,-1.23685 3.446743,0.51688 4.566283,-0.50173 6.052663,-5.50692 1.00639,-3.38889 0.99592,-3.50718 -0.44651,-5.04258 -0.81239,-0.86475 -1.87877,-1.57228 -2.36971,-1.57228 -1.220843,0 -1.853564,1.89193 -0.938683,2.80682 1.384413,1.38441 0.757193,2.33761 -1.825283,2.77392 -3.345016,0.56513 -4.769361,1.66289 -5.678664,4.37658 -0.407523,1.2162 -1.308144,2.50938 -2.001373,2.87374 -2.178041,1.14475 -4.635808,3.84752 -5.855114,6.43877 -0.670129,1.42413 -2.761483,3.72168 -4.867729,5.34765 -3.721749,2.87309 -5.33722,5.83786 -5.33722,9.79505 0,3.30135 2.248382,3.29575 3.629215,-0.009 z M 328.87009,508.16705 c 1.98007,-2.10769 2.43416,-5.49438 1.14907,-8.57002 -1.24108,-2.97031 -2.29883,-2.83892 -3.42918,0.426 -0.82735,2.38977 -0.54646,9.6941 0.3728,9.6941 0.2481,0 1.10638,-0.69753 1.90731,-1.55008 z M 259.90074,391.15553 c 1.58775,-2.6044 1.46899,-3.05295 -1.30612,-4.93322 -2.26126,-1.53211 -4.91613,-1.94076 -5.58435,-0.85956 -0.4603,0.7448 4.01575,7.9305 4.94001,7.9305 0.35597,0 1.23368,-0.96198 1.95046,-2.13772 z m 21.04133,218.54143 c 0,-0.36176 0.296,-0.65776 0.65776,-0.65776 0.36177,0 0.65776,0.296 0.65776,0.65776 0,0.36177 -0.29599,0.65777 -0.65776,0.65777 -0.36176,0 -0.65776,-0.296 -0.65776,-0.65777 z m 59.03414,-14.75428 c -2.08017,-2.32616 -3.78212,-4.66973 -3.78212,-5.20794 0,-1.86086 -0.82465,-3.11196 -2.6855,-4.07424 -1.32433,-0.68484 -2.08914,-1.779 -2.62669,-3.7578 -0.4171,-1.53542 -1.4403,-4.86362 -2.27377,-7.39601 -1.42583,-4.33217 -1.50359,-8.30951 -0.24433,-12.49748 0.10878,-0.36177 -0.0241,-1.30895 -0.29532,-2.10484 -0.51079,-1.49905 1.05678,-5.45942 2.16093,-5.45942 0.31855,0 1.64242,1.47996 2.94195,3.28881 2.54398,3.54104 3.07584,3.82328 4.33824,2.30217 1.12028,-1.34984 3.28929,-1.21427 5.2621,0.32889 0.90443,0.70745 2.38439,1.2945 3.28881,1.30456 3.68981,0.041 6.97035,1.53881 10.00154,4.56627 3.66358,3.65908 3.63015,4.86963 -0.23817,8.62371 -1.9394,1.88212 -2.5298,2.96896 -2.53579,4.66802 -0.0184,5.20141 -3.39223,13.40776 -7.19797,17.50767 -1.0914,1.17574 -2.06251,2.13756 -2.15805,2.13735 -0.0956,-1.9e-4 -1.87568,-1.90357 -3.95586,-4.22972 z m -119.20247,0.97395 c -1.13224,-2.18949 -1.32041,-5.02129 -0.3726,-5.60706 0.36312,-0.22442 0.46688,-2.14673 0.24445,-4.52865 -0.47812,-5.12023 0.34789,-6.99877 3.07743,-6.99877 2.44291,0 4.25512,-3.04079 3.67367,-6.1642 -0.31869,-1.71193 0.0546,-2.61064 2.22057,-5.34664 4.11123,-5.19309 4.78766,-6.60934 3.61973,-7.57864 -0.53311,-0.44245 -0.96931,-1.1223 -0.96931,-1.51077 0,-0.38847 -0.78267,-1.8357 -1.73927,-3.21608 -1.68693,-2.43423 -1.70344,-2.5494 -0.5484,-3.8257 0.91591,-1.01207 1.1632,-2.26322 1.07102,-5.41872 -0.0659,-2.25654 0.28419,-5.42357 0.77808,-7.03784 0.73128,-2.39025 1.26487,-3.03009 2.87484,-3.44727 1.08729,-0.28175 3.3776,-2.00975 5.0896,-3.84001 3.09704,-3.31099 3.11038,-3.34494 2.65142,-6.74802 -0.57065,-4.23135 -0.55898,-4.21244 -2.91857,-4.73069 -1.06416,-0.23373 -2.68323,-1.01363 -3.59792,-1.73313 l -1.66308,-1.30819 2.56807,-2.67258 c 2.00602,-2.08769 2.66463,-3.37477 3.00933,-5.88099 0.2427,-1.76463 0.68282,-3.3577 0.97804,-3.54016 1.59583,-0.98627 3.94432,2.09783 3.94432,5.17979 0,0.82434 0.71942,2.17465 1.59871,3.0007 0.9395,0.88262 1.78205,2.625 2.04336,4.22567 0.24455,1.49807 1.1658,4.79572 2.04719,7.3281 1.50927,4.33632 1.57634,5.13185 1.15222,13.66674 -0.28447,5.72423 -0.12975,13.20098 0.42,20.29776 0.84852,10.95338 0.83762,11.26247 -0.43425,12.31487 -0.71754,0.59372 -2.07442,2.28761 -3.01529,3.76419 -1.73823,2.72792 -8.25416,6.77946 -9.58267,5.95838 -0.34701,-0.21446 -1.97496,0.65718 -3.61766,1.937 -4.36596,3.40149 -5.04635,8.00479 -0.90421,6.1175 2.31855,-1.0564 3.16381,-0.0721 1.11496,1.29835 -0.88734,0.59354 -2.71409,2.18916 -4.05943,3.54579 -1.34533,1.35663 -2.98726,2.47602 -3.64872,2.48752 -0.66147,0.0115 -1.77723,0.4555 -2.47947,0.98664 -1.96382,1.48537 -3.52393,1.1566 -4.62616,-0.97489 z m 48.04836,-18.26818 c -2.71424,-0.41117 -6.14199,-3.22431 -7.77051,-6.37724 -1.05918,-2.05062 -1.43551,-4.15961 -1.59404,-8.93311 -0.11413,-3.43681 -0.42937,-12.1686 -0.70055,-19.40398 -0.61994,-16.5412 -0.38087,-29.22107 0.57261,-30.36993 1.50487,-1.81327 4.29815,-1.01835 6.75278,1.92172 10.13012,12.13352 11.61413,14.78709 13.61465,24.34434 0.69455,3.31813 1.60742,6.98591 2.02859,8.15065 0.6277,1.73588 0.549,2.86646 -0.43653,6.27083 -3.07138,10.6096 -5.16979,16.10562 -6.81629,17.85281 -1.23829,1.314 -1.75276,2.56425 -1.75276,4.25943 0,2.56637 -0.4184,2.81159 -3.89795,2.28448 z M 108.89857,526.53004 c -1.22506,-0.90831 -1.14252,-1.0882 2.0375,-4.4399 6.53009,-6.88262 13.35061,-16.36338 17.65541,-24.54161 3.72557,-7.0778 3.75458,-7.10477 6.28567,-5.84209 1.80571,0.90081 2.05706,1.30965 1.69414,2.75565 -0.32779,1.30605 -0.0782,1.96038 1.08152,2.83515 1.48649,1.12127 1.49012,1.15664 0.25751,2.51866 -0.95722,1.05771 -1.06915,1.56242 -0.47766,2.1539 0.59148,0.59149 1.30797,0.25347 3.0578,-1.44251 2.20601,-2.13815 6.68425,-4.25553 7.18493,-3.39714 0.83546,1.43235 1.03915,4.82217 0.36866,6.13523 -0.4265,0.83519 -2.73221,3.51649 -5.12381,5.95843 -3.56842,3.64353 -4.72449,4.43989 -6.44527,4.43989 -1.56309,0 -2.54878,0.5442 -3.872,2.13773 -3.90651,4.7045 -8.35429,9.03162 -8.92251,8.68044 -0.33071,-0.20439 -0.60129,-0.94613 -0.60129,-1.64831 0,-1.51804 -0.51481,-1.60903 -1.92149,-0.33957 -1.60231,1.446 -8.60041,4.98272 -9.85929,4.98272 -0.61766,0 -1.69758,-0.426 -2.39982,-0.94667 z m 258.8186,-0.14961 c -0.0273,-0.30147 -0.0111,-4.54403 0.0358,-9.42791 0.0905,-9.41383 0.78246,-13.27411 2.78384,-15.52893 0.67713,-0.76288 1.52873,-2.46484 1.89246,-3.78213 1.03141,-3.73551 2.16071,-3.00698 1.64027,1.05816 -0.24317,1.89929 -0.68172,6.56118 -0.97457,10.35976 -0.30239,3.92236 -1.02159,8.04331 -1.66452,9.53754 -0.62264,1.44707 -1.33593,3.79177 -1.58511,5.21041 -0.24918,1.41865 -0.81882,2.70129 -1.26587,2.8503 -0.44706,0.14902 -0.83509,0.0243 -0.86231,-0.2772 z M 150.04743,510.52622 c 0,-0.32886 0.76243,-0.94531 1.69429,-1.3699 1.48846,-0.67818 1.66744,-0.63109 1.47325,0.38774 -0.22368,1.17349 -3.16754,2.08628 -3.16754,0.98216 z m 31.75097,-12.20724 c 0.13944,-0.42374 0.92917,-0.86933 1.75497,-0.9902 1.81974,-0.26634 1.28399,0.89965 -0.64516,1.40413 -0.86887,0.22721 -1.27139,0.0771 -1.10981,-0.41393 z m 6.39922,-3.73038 c 0,-0.36177 0.44399,-0.65776 0.98665,-0.65776 0.54264,0 0.98663,0.29599 0.98663,0.65776 0,0.36178 -0.44399,0.65777 -0.98663,0.65777 -0.54266,0 -0.98665,-0.29599 -0.98665,-0.65777 z m 389.4778,-10.35975 c -0.69278,-1.35663 -2.56655,-4.24256 -4.16393,-6.41318 -7.36907,-10.01352 -10.96049,-18.40632 -13.65116,-31.90146 -3.14781,-15.78799 -6.02332,-29.68918 -7.4833,-36.1769 -2.30013,-10.22109 -3.66813,-21.96073 -3.13228,-26.87986 0.48689,-4.46965 1.61818,-6.00825 4.41767,-6.00825 2.64141,0 4.4086,3.2683 6.84643,12.66192 0.49949,1.92469 1.17839,3.12437 1.76811,3.12437 1.08399,0 0.87871,-4.13673 -0.88129,-17.75958 -0.53749,-4.16035 -1.15008,-11.56377 -1.36129,-16.45208 -0.32994,-7.63582 -0.23662,-9.01016 0.66246,-9.75634 3.74862,-3.11107 6.81468,4.06889 9.36605,21.93297 1.15183,8.06485 4.15889,19.16338 5.92069,21.85223 0.53995,0.82407 1.6409,1.50285 2.44654,1.50839 1.86924,0.0128 2.44014,0.43091 4.70201,3.44318 2.52715,3.36555 4.20417,3.23492 8.4449,-0.65776 4.83163,-4.43509 5.63336,-5.4464 6.49089,-8.18765 0.9287,-2.96878 1.95125,-3.4392 4.40931,-2.02846 1.77519,1.01882 2.01233,1.0061 4.1214,-0.22106 2.55505,-1.48666 3.39081,-4.66853 1.61366,-6.14345 -0.56113,-0.46569 -1.02024,-1.23094 -1.02024,-1.70055 0,-1.07363 3.85255,-1.97325 4.72293,-1.10287 0.66768,0.66768 3.61384,11.51741 4.45033,16.38911 0.55619,3.23918 1.67534,4.80377 3.43616,4.80377 0.69652,0 2.02049,0.81399 2.94216,1.80885 1.42959,1.54314 2.36706,1.86748 6.38178,2.20803 2.5883,0.21954 6.48196,0.91472 8.65258,1.54482 2.22219,0.64508 6.48519,1.18916 9.75669,1.24523 5.60534,0.0961 5.86614,0.0346 7.39985,-1.74595 1.60138,-1.85913 2.14462,-4.40321 0.94013,-4.40321 -0.35723,0 -1.39688,-1.18397 -2.31039,-2.63105 -0.9135,-1.44707 -2.11306,-2.63105 -2.66568,-2.63105 -1.38201,0 -6.19581,-5.30376 -6.2059,-6.83752 -0.012,-1.8324 3.32103,-6.78274 5.11814,-7.60156 1.3601,-0.6197 1.77279,-0.44695 3.31136,1.38601 2.63197,3.13561 6.23421,6.44367 7.34858,6.74847 0.54266,0.14844 2.07571,0.45321 3.40682,0.67728 1.69676,0.28562 4.05615,1.79012 7.89315,5.03304 3.01011,2.5441 8.0095,6.07821 11.10973,7.85358 6.32274,3.62076 7.35983,4.56853 8.81776,8.05775 0.84799,2.02958 1.3461,2.44253 2.94618,2.44253 2.76227,0 3.19811,1.27422 1.02782,3.00477 -1.94823,1.55342 -1.93942,3.57284 0.0158,3.57284 0.58008,0 2.37446,0.77349 3.98762,1.71886 2.64229,1.54847 3.34768,1.67444 7.11633,1.27085 4.64689,-0.49764 8.02174,0.17387 13.33034,2.65241 1.87686,0.8763 3.71642,1.59328 4.08786,1.59328 0.37143,0 1.0192,0.64255 1.43951,1.42788 1.1987,2.23974 -0.53016,2.98255 -7.01089,3.01236 -4.9098,0.0226 -5.84658,0.21648 -7.20315,1.4909 -1.75919,1.65267 -3.49699,1.58382 -15.44538,-0.61201 -6.5242,-1.199 -16.35124,-1.03791 -16.58244,0.27184 -0.17845,1.01085 6.00504,4.93321 7.77698,4.93321 1.3402,0 1.57008,0.32029 1.57008,2.18751 0,1.48289 0.5297,2.68513 1.64441,3.73235 2.31401,2.17392 2.11069,3.81888 -0.61277,4.95681 -2.73432,1.14248 -3.37083,2.0318 -2.34157,3.27191 1.17569,1.41665 0.52253,2.42135 -2.7626,4.24967 -5.33787,2.97071 -10.9958,6.90755 -11.02626,7.67214 -0.0164,0.41061 0.71025,1.23141 1.61468,1.82402 2.06557,1.35342 2.16659,2.65568 0.16443,2.12042 -0.81397,-0.21761 -5.49356,-0.0725 -10.39902,0.3224 -7.9576,0.64066 -9.87209,0.57399 -17.75959,-0.61847 -5.74953,-0.86923 -10.45035,-1.21351 -13.44484,-0.98467 -5.16184,0.39449 -15.42572,-1.72138 -24.61017,-5.07329 -2.7635,-1.00855 -6.72458,-2.148 -8.80242,-2.53211 -2.07782,-0.3841 -5.16784,-1.51295 -6.86671,-2.50856 -3.91419,-2.29387 -11.55092,-9.46809 -13.41818,-12.60553 -1.82247,-3.06164 -7.16506,-8.64564 -8.27219,-8.64564 -1.04279,0 -1.07554,2.44531 -0.16263,12.13829 1.28053,13.59601 4.32131,27.00352 7.98085,35.18947 1.0436,2.3344 1.75011,4.62834 1.57001,5.09766 -0.6197,1.61489 -2.31768,0.8486 -3.57488,-1.61331 z M 265.46817,461.53606 c 0.85409,-2.71356 1.17387,-9.03216 0.49942,-9.86807 -1.01468,-1.25757 -0.59388,-12.65327 0.51663,-13.99137 0.5081,-0.61222 0.96901,-2.33914 1.02425,-3.83759 0.13445,-3.64795 1.00388,-8.31543 1.54894,-8.31543 0.24178,0 0.72079,0.27092 1.06447,0.60205 0.34368,0.33114 1.36486,0.70114 2.26929,0.8222 1.11083,0.14872 1.96454,0.92295 2.63104,2.38609 0.85444,1.87575 1.25104,2.12867 2.95993,1.88761 2.55105,-0.35985 4.27545,0.56802 4.27545,2.30054 0,1.1824 -0.28133,1.31834 -2.0119,0.97223 -3.92466,-0.78493 -6.91863,4.20769 -10.85965,18.10916 -1.2646,4.46071 -2.45769,8.62837 -2.65133,9.26146 -0.19363,0.6331 -0.66263,1.15109 -1.04221,1.15109 -0.41523,0 -0.50458,-0.58956 -0.22433,-1.47997 z m 109.21345,-93.56665 c 0.28827,-0.72354 0.72595,-3.23948 0.9726,-5.59098 0.42919,-4.0915 1.87966,-8.00543 3.28972,-8.87689 1.01731,-0.62874 0.81941,0.77856 -1.06328,7.56137 -0.95394,3.43681 -2.18191,6.69273 -2.72879,7.23538 -0.88528,0.87842 -0.93687,0.84235 -0.47025,-0.32888 z m -169.0533,-4.64776 c -1.80884,-0.87123 -3.93366,-1.58787 -4.72179,-1.59251 -1.63982,-0.009 -3.50024,-1.62106 -3.50024,-3.03166 0,-0.52577 0.74426,-1.23891 1.6539,-1.58475 0.90965,-0.34584 2.50519,-1.2582 3.54565,-2.02744 1.70545,-1.2609 2.07694,-1.30985 3.77263,-0.49712 1.48436,0.71144 1.8809,1.34119 1.8809,2.98716 0,1.37907 0.61281,2.72532 1.80884,3.9737 3.53258,3.68722 1.34691,4.55986 -4.43989,1.77262 z m 163.12499,-4.88979 c 0.22358,-0.36176 0.53705,-0.65776 0.69658,-0.65776 0.15953,0 0.29006,0.296 0.29006,0.65776 0,0.36177 -0.31346,0.65776 -0.69659,0.65776 -0.38312,0 -0.51364,-0.29599 -0.29005,-0.65776 z m 201.58779,-3.00275 c -1.6028,-4.21567 -0.15384,-5.92967 2.70077,-3.19478 2.24081,2.14683 2.41191,3.25685 0.64756,4.20111 -1.94819,1.04263 -2.64945,0.83187 -3.34833,-1.00633 z m -384.00767,-1.035 c 0.12088,-0.85427 0.51578,-1.47923 0.87755,-1.38879 0.97097,0.24275 0.79951,2.30973 -0.21979,2.64951 -0.60163,0.20054 -0.80844,-0.19585 -0.65776,-1.26072 z m 194.58847,-8.71574 c 0,-1.25185 0.56721,-2.91015 1.29364,-3.78214 l 1.29364,-1.55282 0.022,1.71069 c 0.0278,2.17699 -1.23824,5.85357 -2.01577,5.85357 -0.32638,0 -0.59342,-1.00319 -0.59342,-2.2293 z m 52.0819,-6.47933 c 0.1156,-0.81029 0.72907,-1.57214 1.36325,-1.69302 1.45764,-0.27782 2.32359,1.7777 1.08051,2.56482 -1.6405,1.03876 -2.66423,0.67354 -2.44376,-0.8718 z m 127.22289,-6.69738 c -3.73113,-5.41745 -4.99784,-8.28066 -4.99784,-11.29691 0,-2.51179 -0.97141,-6.69817 -2.73254,-11.77616 -2.36287,-6.81302 -2.60057,-8.14622 -1.89803,-10.64575 0.38793,-1.38021 1.15302,-3.09567 1.7002,-3.81213 0.97499,-1.27661 1.02571,-1.26394 2.53914,0.63407 0.84934,1.06519 1.91699,2.98334 2.37256,4.26257 0.45556,1.27922 1.3801,3.11153 2.05453,4.0718 0.67444,0.96027 1.22623,1.94121 1.22623,2.17988 0,0.23866 0.731,2.03204 1.62444,3.98529 2.45105,5.35857 3.52055,11.08423 3.37717,18.08011 -0.18828,9.18643 -1.29013,10.0898 -5.26586,4.31723 z m -180.77724,-26.4889 c -1.76571,-1.76572 -1.79626,-1.77062 -4.12211,-0.6615 -3.30676,1.57688 -4.84578,1.42359 -5.59906,-0.55768 -0.56675,-1.49068 -0.89078,-1.62744 -2.94365,-1.24232 -1.61272,0.30255 -2.30677,0.1914 -2.30677,-0.36938 0,-1.04675 5.64471,-8.07846 9.48388,-11.81426 1.65748,-1.61283 3.01359,-3.27855 3.01359,-3.70159 0,-0.42302 0.48951,-1.17538 1.08781,-1.67189 1.34245,-1.11405 8.05188,-10.21821 9.54543,-12.95236 0.60262,-1.1032 2.36823,-2.80915 3.92357,-3.79099 1.55535,-0.98184 4.92258,-3.53322 7.48275,-5.66973 4.39512,-3.6678 5.71126,-4.58174 9.44584,-6.55929 1.36482,-0.7227 1.7014,-0.64657 2.72391,0.61619 1.06725,1.31799 1.08452,1.67921 0.2027,4.23874 -0.5302,1.53888 -1.21477,5.02379 -1.52128,7.74423 -0.44429,3.94319 -0.36767,5.15686 0.3778,5.98471 1.26555,1.4054 1.17856,2.15503 -0.41769,3.59962 -0.91376,0.82695 -1.23224,1.7045 -0.98136,2.70408 0.26165,1.04248 -0.18712,2.1202 -1.5184,3.64648 -1.0394,1.19164 -2.0977,2.83261 -2.35177,3.64659 -0.31082,0.99579 -0.97882,1.47997 -2.04182,1.47997 -1.19075,0 -2.13471,0.86735 -3.83257,3.52152 -1.75922,2.75012 -2.7267,3.61634 -4.41651,3.95431 -2.07573,0.41514 -2.69908,0.0772 -3.47707,-1.88486 -0.41571,-1.04844 -7.09931,6.34409 -8.00741,8.85676 -1.05785,2.92702 -1.58203,3.05041 -3.74981,0.88265 z m -86.99247,-4.78205 c -0.74874,-4.43177 0.96067,-5.54421 2.19398,-1.4278 1.0371,3.46155 0.96667,4.0347 -0.49583,4.0347 -0.95279,0 -1.36449,-0.63201 -1.69815,-2.6069 z m 15.7128,-2.49075 c -0.23286,-0.99487 -0.82782,-3.4148 -1.32216,-5.37763 -0.49434,-1.96283 -0.76854,-3.69903 -0.60934,-3.85821 0.69194,-0.69196 6.07905,-0.70125 7.42745,-0.0128 2.25778,1.15272 2.00898,4.17253 -0.44847,5.44332 -1.15326,0.59638 -2.26397,1.92515 -2.76317,3.3057 -1.00408,2.7767 -1.71496,2.9322 -2.28431,0.49963 z m -34.01329,-3.8198 c -1.41969,-1.94986 -1.24087,-4.56292 0.31313,-4.57552 0.60048,-0.004 1.66048,-0.5235 2.35554,-1.15251 2.30416,-2.08524 2.80126,0.0531 1.06762,4.59262 -1.22844,3.21661 -2.04116,3.46359 -3.73629,1.13541 z m 74.2168,-3.0867 c -1.14201,-3.38988 -0.82482,-3.66645 3.13681,-2.7351 1.29412,0.30424 2.2125,0.0863 3.1284,-0.74266 1.74405,-1.57833 2.4829,-0.67774 0.90072,1.0979 -1.2178,1.36671 -4.76544,3.20206 -6.18942,3.20206 -0.38473,0 -0.82418,-0.37 -0.97651,-0.8222 z m -21.63572,-11.37239 c -0.64801,-1.68868 -0.47835,-4.12952 0.32139,-4.62379 1.04772,-0.64754 1.94232,1.03852 1.74222,3.28361 -0.19254,2.16031 -1.43841,2.96942 -2.06361,1.34018 z m 32.85133,-4.83561 c -0.19924,-0.32237 0.7836,-1.62134 2.18407,-2.88659 2.41378,-2.1807 2.6703,-2.26166 4.92777,-1.55507 2.92418,0.91525 3.24441,2.83612 0.5726,3.43471 -0.99486,0.22289 -2.84482,0.67086 -4.11101,0.99551 -2.86741,0.73518 -3.12563,0.73601 -3.57343,0.0115 z m -66.84305,-5.99147 c -0.0427,-0.18089 -0.16336,-1.75614 -0.26815,-3.50055 -0.16836,-2.80255 -0.0123,-3.23941 1.3408,-3.75387 1.57383,-0.59836 3.56762,-3.70869 3.56762,-5.56547 0,-1.36756 2.50057,-6.25521 3.20024,-6.25521 0.29834,0 1.06247,0.57463 1.69807,1.27695 1.83185,2.02418 0.82684,7.24177 -2.17296,11.28105 -1.31806,1.77478 -2.88977,3.22719 -3.49269,3.22758 -0.60292,3.9e-4 -1.70352,0.81469 -2.44577,1.80955 -0.74224,0.99487 -1.38447,1.66085 -1.42716,1.47997 z m 51.40966,-2.99191 c -1.45713,-2.46967 -1.46074,-2.53592 -0.29985,-5.50932 0.64627,-1.65528 1.62873,-4.34158 2.18326,-5.96953 l 1.00824,-2.95993 2.95992,0.20629 c 3.14217,0.21899 6.11405,1.8798 6.45394,3.60672 0.11286,0.57341 -0.99712,2.20937 -2.46661,3.63546 -1.46949,1.42609 -2.6718,3.0808 -2.6718,3.67715 0,0.59634 -0.51799,1.2612 -1.15108,1.47747 -0.6331,0.21628 -1.91385,1.28021 -2.84611,2.36431 l -1.69503,1.97111 -1.47488,-2.49973 z m -26.57072,-6.32468 c -3.60769,-2.94663 -4.43305,-4.86129 -3.64566,-8.45712 0.35478,-1.62018 0.90677,-5.39831 1.22664,-8.39582 0.58333,-5.4665 1.48979,-7.54142 4.47182,-10.23626 2.48594,-2.24651 3.73329,0.71803 1.75684,4.17546 -1.26921,2.22026 -1.26921,7.49755 0,8.55089 1.08726,0.90236 1.3215,3.00423 0.39837,3.57476 -1.16054,0.71725 -1.92659,8.85345 -1.07236,11.38933 0.67077,1.99122 -0.15555,1.83278 -3.13565,-0.60124 z m 54.87091,0.81802 c -0.47956,-0.29637 -0.76625,-1.09537 -0.63712,-1.77556 0.28693,-1.51139 3.84123,-2.18184 3.84123,-0.72458 0,1.41697 -2.19078,3.12642 -3.20411,2.50014 z m -100.7223,-1.39449 c 0,-0.37642 -0.61644,-1.5182 -1.36989,-2.53727 -1.13188,-1.53095 -1.29033,-2.38344 -0.91195,-4.90659 0.54352,-3.62453 2.28038,-4.32098 2.2843,-0.91597 0.001,1.17574 0.59333,3.10686 1.31552,4.29135 1.5839,2.59783 1.6605,3.82104 0.27263,4.35362 -1.41073,0.54134 -1.59061,0.5091 -1.59061,-0.28514 z m 116.44779,-2.90449 c -1.24567,-1.50095 -0.20022,-2.33098 2.93603,-2.33098 1.58525,0 3.07323,0.30896 3.30661,0.68657 0.7309,1.18264 -1.07298,2.60224 -3.30661,2.60224 -1.17761,0 -2.49882,-0.43102 -2.93603,-0.95783 z m -104.32728,-5.40277 c 1.04735,-2.72936 1.76859,-7.50974 1.99701,-13.23622 0.24153,-6.05538 0.98421,-8.31909 2.29822,-7.00508 1.16097,1.16097 1.0976,9.67484 -0.093,12.49091 -0.6046,1.43008 -1.60485,4.00613 -2.22276,5.72453 -0.61791,1.7184 -1.41093,3.12437 -1.76226,3.12437 -0.35132,0 -0.44908,-0.49433 -0.21723,-1.09851 z m 104.96113,-6.25548 c -1.26619,-0.36177 -2.67883,-0.96885 -3.13921,-1.34908 -1.0007,-0.82647 -0.44875,-3.12595 1.02919,-4.28773 1.24953,-0.98224 5.15303,-1.09432 5.72772,-0.16444 0.22358,0.36177 0.99032,0.65776 1.70386,0.65776 2.14507,0 2.25412,1.875 0.23181,3.98584 -2.01274,2.10085 -2.15107,2.12969 -5.55337,1.15765 z m -25.48828,-3.34745 c -1.73692,-2.5894 -1.95604,-6.50194 -0.43485,-7.76442 0.57482,-0.47705 2.12878,-0.9611 3.45326,-1.07564 1.32447,-0.11457 3.13888,-0.27848 4.03201,-0.36427 2.60527,-0.25024 2.43011,1.84639 -0.41842,5.00836 -1.38654,1.53911 -3.11296,3.60926 -3.83651,4.60034 l -1.31551,1.80194 -1.47998,-2.20631 z m -25.02933,-3.41768 c -0.43331,-0.95099 -0.78783,-2.82707 -0.78783,-4.16907 0,-1.342 -0.27127,-3.3859 -0.60284,-4.54202 -0.46973,-1.63784 -0.32447,-2.64802 0.65776,-4.57463 0.69334,-1.35993 1.26061,-2.85401 1.26061,-3.32018 0,-0.46616 0.29599,-0.84756 0.65776,-0.84756 1.03689,0 1.08165,15.18359 0.0529,17.9644 -0.40201,1.08675 -0.53557,1.03164 -1.23841,-0.51094 z m 56.80366,-12.33772 c -0.56317,-0.80403 -1.02395,-1.82323 -1.02395,-2.26487 0,-1.3035 2.75707,-2.85087 5.07958,-2.85087 1.83982,0 2.1558,0.23245 2.1558,1.58594 0,0.96344 -0.79432,2.25431 -2.02374,3.2888 -2.46766,2.07639 -2.88529,2.10043 -4.18769,0.241 z m 20.65243,0.43937 c -0.70828,-0.85343 -0.6238,-1.24731 0.51089,-2.38199 1.47305,-1.47306 2.80769,-1.14948 2.80769,0.68073 0,1.14068 -1.17654,2.72377 -2.0243,2.72377 -0.24511,0 -0.82754,-0.46013 -1.29428,-1.02251 z m -102.45095,-9.26662 c -0.61938,-1.1651 -1.07621,-5.14407 -0.87987,-7.66352 0.12328,-1.58173 7.20554,-8.54531 8.27396,-8.13532 0.98361,0.37745 1.71136,2.66252 1.11047,3.4868 -0.22698,0.31138 -0.95879,0.86545 -1.62625,1.23127 -0.68975,0.37804 -1.96736,2.8489 -2.95994,5.72441 -2.03694,5.9011 -2.95883,7.1613 -3.91837,5.35636 z m 44.63441,-2.0439 c 0.0947,-2.96577 3.66227,-9.37311 5.21891,-9.37311 1.00304,0 0.79613,1.70271 -0.31942,2.62853 -0.54098,0.44898 -1.3328,2.03918 -1.75957,3.53379 -0.83886,2.93781 -1.68754,4.36187 -2.59944,4.36187 -0.31748,0 -0.56069,-0.518 -0.54048,-1.15108 z m 36.10421,-8.12477 c -0.41191,-0.76968 -0.61042,-2.32741 -0.4411,-3.46161 0.16932,-1.1342 0.0572,-2.72818 -0.24903,-3.54215 -0.30628,-0.81399 -0.30768,-1.47997 -0.003,-1.47997 0.46581,0 1.29867,1.68364 3.79822,7.67826 0.17699,0.42447 -0.28073,1.09421 -1.01713,1.48832 -1.11033,0.59423 -1.46678,0.47765 -2.08787,-0.68285 z m -11.71913,-2.27679 c -2.05931,-2.61799 -1.89602,-6.60402 0.36731,-8.96644 2.46824,-2.57629 3.77401,-2.45637 3.18927,0.2929 -0.25007,1.17574 -0.60571,3.76568 -0.79029,5.75542 -0.42194,4.54808 -1.00245,5.16047 -2.76629,2.91812 z m -36.56233,-4.1882 c -0.48646,-0.78707 0.75091,-1.56694 1.62704,-1.02546 0.73561,0.45462 0.25269,1.63777 -0.66849,1.63777 -0.31907,0 -0.75042,-0.27554 -0.95855,-0.61231 z m 61.26803,-0.80391 c -2.06027,-1.05816 -2.47034,-1.59139 -2.30216,-2.99366 0.11254,-0.93839 0.7093,-2.02212 1.32614,-2.40827 1.56922,-0.98236 4.46946,1.78388 4.46946,4.26295 0,2.46419 -0.55859,2.64631 -3.49344,1.13898 z m 14.23853,-1.58793 c -0.70805,-1.84515 0.73911,-2.40011 2.96073,-1.1354 2.69623,1.53489 2.6256,2.16626 -0.24234,2.16626 -1.50223,0 -2.46256,-0.36417 -2.71839,-1.03086 z m -84.42907,-7.68448 c -0.016,-3.06174 -1.38354,-5.35011 -3.96284,-6.6313 -1.7273,-0.85797 -2.49746,-3.4365 -1.36477,-4.56919 0.48017,-0.48017 0.88139,-0.18302 1.32373,0.98039 0.44771,1.17757 1.29216,1.79275 2.86633,2.08806 2.28002,0.42774 5.09875,3.35086 5.09875,5.2876 0,1.67528 -2.16635,5.63993 -3.08176,5.63993 -0.57663,0 -0.86969,-0.93156 -0.87944,-2.79549 z m 32.90273,-3.37272 c 0,-2.16117 1.32691,-4.12536 2.19825,-3.25401 0.54279,0.54279 0.56181,3.05854 0.0335,4.4352 -0.74889,1.95154 -2.23181,1.16669 -2.23181,-1.18119 z m 22.85228,-2.93617 c -0.9976,-0.60001 -1.97952,-1.60892 -2.18206,-2.24202 -0.20253,-0.6331 -0.64429,-1.15108 -0.98169,-1.15108 -1.26916,0 -0.53884,-1.7854 1.52429,-3.72645 2.42301,-2.27962 6.28446,-4.32389 7.15325,-3.78695 0.69272,0.42812 0.0494,3.36935 -1.13975,5.21122 -0.46714,0.72355 -1.05013,2.5735 -1.29554,4.11102 -0.49586,3.10661 -0.52367,3.12092 -3.0785,1.58426 z m -42.58515,-12.82871 c 0,-2.68039 -0.31257,-3.79863 -1.31551,-4.70628 -2.69287,-2.437 -0.53507,-6.24874 3.53736,-6.24874 2.44761,0 6.98683,1.66275 6.98683,2.55934 0,0.31262 -0.44698,0.93935 -0.9933,1.39274 -0.54629,0.4534 -1.45848,2.42461 -2.02707,4.38049 -1.0947,3.76567 -3.02607,6.13819 -4.99681,6.13819 -1.00153,0 -1.1915,-0.56049 -1.1915,-3.51574 z m 55.37674,-3.25259 c 0.16439,-1.70013 0.5245,-2.14612 1.84857,-2.28944 1.90122,-0.20579 6.37933,2.30914 5.51435,3.09687 -0.31962,0.29109 -2.15298,0.70356 -4.07411,0.91662 l -3.49296,0.38738 0.20415,-2.11143 z m -33.23095,-2.76478 c -3.60338,-3.45265 -4.38621,-5.1469 -4.38621,-9.49301 0,-2.24364 -0.45514,-3.82491 -1.57662,-5.47748 -0.86714,-1.27781 -1.77789,-3.23967 -2.02389,-4.3597 -0.24601,-1.12003 -0.72259,-2.20657 -1.05908,-2.41453 -1.12146,-0.69311 -1.44923,1.74399 -0.58624,4.35888 1.17044,3.54646 0.14123,5.87057 -2.59974,5.87057 -2.44007,0 -4.95526,-3.05647 -5.87172,-7.13534 -0.76474,-3.40357 -0.9757,-3.64874 -3.17311,-3.68751 -2.92506,-0.0516 -3.25512,-1.66206 -1.22157,-5.96061 1.90508,-4.02702 1.91353,-4.26265 0.47724,-13.31862 -0.30205,-1.90448 -1.19369,-4.33444 -1.98142,-5.39989 -1.12114,-1.51643 -1.43223,-2.85416 -1.43223,-6.15875 0,-3.00965 -0.29254,-4.46433 -1.01901,-5.06726 -0.68879,-0.57164 -0.95523,-1.7168 -0.82221,-3.53379 0.17494,-2.38939 0.025,-2.7124 -1.34943,-2.90696 -1.325,-0.18756 -1.48008,-0.46989 -1.0839,-1.973277 0.25429,-0.964935 0.41978,-3.284522 0.36774,-5.154643 -0.0776,-2.790097 0.12559,-3.470115 1.13253,-3.789705 5.67131,-1.800005 8.08897,-13.616411 3.71915,-18.177507 -1.03035,-1.075458 -2.18726,-2.911572 -2.57089,-4.080262 -0.60761,-1.850995 -0.95652,-2.100295 -2.70698,-1.934106 -1.60186,0.152068 -2.16121,-0.142273 -2.75756,-1.451114 -0.42304,-0.928457 -2.01035,-2.216899 -3.65306,-2.96525 -3.0545,-1.391489 -3.70208,-2.538397 -3.71817,-6.585093 -0.005,-1.380229 -0.54632,-2.831744 -1.38957,-3.729351 l -1.3806,-1.469575 3.13188,-7.781483 c 5.37876,-13.364117 7.57475,-16.410333 15.07357,-20.909612 4.06588,-2.439514 6.05519,-3.12384 13.73763,-4.725709 4.03014,-0.840321 4.90972,-0.827081 8.17837,0.123147 2.9169,0.847961 4.42797,1.846954 7.42201,4.906779 9.53995,9.749565 11.13026,21.483876 5.11276,37.72521 -1.09138,2.945671 -2.96654,8.463685 -4.167,12.262261 -1.20047,3.798576 -2.81421,8.682452 -3.58608,10.853068 -1.81465,5.103069 -2.56742,12.309939 -1.87126,17.915248 1.28516,10.347874 1.9857,15.299554 2.93304,20.731864 0.55238,3.16746 0.84273,6.1801 0.64525,6.69476 -0.1975,0.51464 0.0486,4.58294 0.54685,9.04063 1.30606,11.6848 1.63516,13.60689 3.02821,17.68625 0.68769,2.01382 1.25035,3.88045 1.25035,4.14809 0,0.26763 -0.96197,1.36552 -2.13773,2.43974 -1.75264,1.60131 -2.13772,2.44338 -2.13772,4.67464 0,1.49683 -0.31161,2.82638 -0.69246,2.95457 -0.38085,0.12818 -2.09136,-1.10732 -3.80112,-2.74557 z m -51.88475,-9.55555 c -1.69683,-2.04821 -1.83694,-5.24853 -0.22978,-5.24853 0.68309,0 3.65827,5.52046 3.65827,6.78794 0,1.12918 -1.93896,0.25857 -3.42849,-1.53941 z m 17.6452,-4.91965 c 0.52811,-2.45846 1.56957,-3.72028 1.56957,-1.90167 0,0.72674 -0.44853,1.89591 -0.99673,2.59816 -0.93982,1.20389 -0.97253,1.16411 -0.57284,-0.69649 z M 332.2032,92.419441 c -1.75662,-3.51731 -1.35475,-5.158058 1.19165,-4.865152 1.52899,0.17587 1.8459,0.557209 2.02549,2.437227 0.25386,2.657473 -0.33135,5.335518 -1.16593,5.335518 -0.32951,0 -1.25255,-1.30842 -2.05121,-2.907593 z"
       style="fill:#040404" />
  </g>
</svg>
